<svg width="52" height="45" viewBox="0 0 52 45" fill="none" xmlns="http://www.w3.org/2000/svg">
<path fill-rule="evenodd" clip-rule="evenodd" d="M36.6716 2.92076C35.9613 1.5001 34.5068 0.600098 32.9157 0.600098H19.0824C17.4913 0.600098 16.0369 1.5001 15.3265 2.92076L13.0535 7.46859C12.9503 7.67028 12.7438 7.79967 12.516 7.79967H6.79936C3.154 7.79967 0.199219 10.754 0.199219 14.3998V38.3995C0.199219 40.1493 0.89511 41.8291 2.13139 43.0674C3.36969 44.3034 5.04996 44.9996 6.79936 44.9996H45.199C46.9488 44.9996 48.6287 44.3037 49.867 43.0674C51.1029 41.8291 51.7992 40.1489 51.7992 38.3995V14.3998C51.7992 10.7544 48.8448 7.79967 45.199 7.79967H39.1128L36.672 2.92033L36.6716 2.92076ZM33.4533 4.53109L36.3883 10.404C36.6933 11.0135 37.3173 11.4001 37.9987 11.4001H45.1987C46.8549 11.4001 48.1988 12.744 48.1988 14.4002V38.3999C48.1988 39.1966 47.8822 39.9576 47.3205 40.5213C46.7564 41.083 45.9958 41.3996 45.1991 41.3996H6.79941C6.00267 41.3996 5.24164 41.083 4.67798 40.5213C4.11629 39.9572 3.79967 39.1966 3.79967 38.3999V14.4002C3.79967 12.744 5.1436 11.4001 6.79981 11.4001H12.5164C14.1075 11.4001 15.5619 10.5001 16.2723 9.0794L18.5453 4.53157C18.6485 4.32987 18.855 4.20049 19.0829 4.20049H32.9161C33.1439 4.20049 33.3505 4.33026 33.4537 4.53157L33.4533 4.53109Z" fill="#191E4D"/>
<path fill-rule="evenodd" clip-rule="evenodd" d="M25.9973 13.7998C19.7045 13.7998 14.5977 18.9069 14.5977 25.1995C14.5977 31.4923 19.7047 36.5991 25.9973 36.5991C32.2899 36.5991 37.397 31.4921 37.397 25.1995C37.397 18.9067 32.2899 13.7998 25.9973 13.7998ZM25.9973 17.3998C30.3028 17.3998 33.7972 20.8942 33.7972 25.1997C33.7972 29.5052 30.3028 32.9995 25.9973 32.9995C21.6918 32.9995 18.1974 29.5052 18.1974 25.1997C18.1974 20.8942 21.6918 17.3998 25.9973 17.3998Z" fill="#191E4D"/>
</svg>
