<svg width="55" height="37" viewBox="0 0 55 37" fill="none" xmlns="http://www.w3.org/2000/svg">
<path d="M54.2962 13.7968L27.9632 0.862229C27.6683 0.714544 27.331 0.714544 27.0361 0.862229L0.703141 13.7968C0.345169 13.9652 0.113281 14.3443 0.113281 14.7446C0.113281 15.1449 0.345169 15.5029 0.703141 15.6924L11.9104 21.1912V29.5544C11.9104 33.4727 18.5676 36.4431 27.3944 36.4431C36.2215 36.4431 42.8784 33.4938 42.8784 29.5544V21.296L47.1758 19.1892L48.3555 19.3999L48.3559 21.9705C47.092 22.4131 46.186 23.6136 46.186 25.0251C46.186 26.0152 46.6494 26.9212 47.3446 27.511L46.2491 30.3972C46.0384 30.9447 46.3122 31.5558 46.8601 31.7453C46.9867 31.7876 47.1127 31.8083 47.2393 31.8083C47.6607 31.8083 48.061 31.5557 48.2294 31.1342L49.3249 28.248H49.4303H49.5987L50.6311 30.9654C50.7996 31.3869 51.1998 31.6395 51.6213 31.6395C51.7478 31.6395 51.8739 31.6183 52.0004 31.5764C52.548 31.3657 52.8222 30.7547 52.6114 30.2283L51.5583 27.4686C52.2323 26.8788 52.6749 25.9941 52.6749 25.0251C52.6749 23.5928 51.7478 22.3919 50.4627 21.9493V18.6838C50.4839 18.5362 50.4839 18.3889 50.4415 18.2412C50.4204 18.0305 50.315 17.8409 50.1889 17.6937L54.2967 15.6711C54.6547 15.5027 54.8866 15.1235 54.8866 14.7232C54.8866 14.323 54.6547 13.965 54.2967 13.7966L54.2962 13.7968ZM37.2107 32.7139C34.5983 33.7671 31.1226 34.3362 27.3935 34.3362C23.6648 34.3362 20.1887 33.7675 17.5763 32.7139C15.3434 31.808 14.0164 30.6283 14.0164 29.5539V29.3855C14.754 29.9965 15.6595 30.5441 16.755 31.0286C19.6201 32.3137 23.3911 33.0089 27.3936 33.0089C31.3961 33.0089 35.1671 32.3137 38.0322 31.0286C39.1277 30.5441 40.0336 29.9754 40.7708 29.3855V29.5539C40.7712 30.6283 39.4438 31.808 37.2109 32.7139H37.2107ZM40.771 24.2871V25.5299C40.771 28.0789 35.2727 30.9228 27.3929 30.9228C19.5142 30.9232 14.016 28.0793 14.016 25.5303V22.2226L27.0352 28.6057C27.1829 28.6687 27.3301 28.711 27.4985 28.711C27.6669 28.711 27.8146 28.6687 27.9618 28.6057L40.77 22.3069L40.771 24.2871ZM49.4293 26.162C48.7971 26.162 48.2919 25.6563 48.2919 25.0246C48.2919 24.3924 48.7976 23.8872 49.4293 23.8872C50.0615 23.8872 50.5667 24.3929 50.5667 25.0246C50.5667 25.6568 50.0403 26.162 49.4293 26.162ZM46.8592 16.9769L27.6679 13.6904C27.0992 13.585 26.5512 13.9853 26.4458 14.554C26.3405 15.1227 26.7408 15.6706 27.3095 15.776L43.6151 18.578L27.4991 26.4992L3.54625 14.744L27.4991 2.98883L51.4519 14.744L46.8592 16.9769Z" fill="white"/>
</svg>
