<svg width="29" height="23" viewBox="0 0 29 23" fill="none" xmlns="http://www.w3.org/2000/svg">
<path d="M25.2265 3.59752H18.6059V2.47052C18.6059 1.1558 17.526 0.0759277 16.2113 0.0759277H10.3888C9.07411 0.0759277 7.99425 1.1558 7.99425 2.47052V3.59752H3.06394C1.60843 3.59752 0.43457 4.77138 0.43457 6.22688V19.3272C0.43457 20.9236 1.7493 22.2383 3.34566 22.2383H25.1795C26.7759 22.2383 28.1377 20.9236 28.1377 19.2801V6.50844C28.1377 4.91207 26.823 3.59735 25.2266 3.59735L25.2265 3.59752ZM9.16811 2.47052C9.16811 1.76634 9.73146 1.20267 10.436 1.20267H16.2584C16.9626 1.20267 17.5263 1.76602 17.5263 2.47052V3.59752H9.16802L9.16811 2.47052ZM1.56156 6.22697C1.56156 5.38195 2.21891 4.72425 3.06427 4.72425H22.4565C23.4427 4.72425 24.2408 5.52244 24.2408 6.50861V10.5467C24.2408 11.5329 23.4427 12.3779 22.4096 12.3779H14.7559V11.2509C14.7559 10.2179 13.9109 9.4197 12.9247 9.4197C11.9385 9.4197 11.0935 10.2647 11.0935 11.2509V12.3779H3.34583C2.35962 12.3779 1.56148 11.5797 1.56148 10.5936L1.56156 6.22697ZM13.6289 11.2509V13.7395C13.6289 14.162 13.3 14.4437 12.9247 14.4437C12.549 14.444 12.1733 14.1152 12.1733 13.7395V11.2509C12.1733 10.8284 12.5022 10.5467 12.8775 10.5467C13.2532 10.5467 13.6289 10.8284 13.6289 11.2509ZM6.11632 21.1114H3.34608C2.35987 21.1114 1.56173 20.3132 1.56173 19.327V12.8476C2.07825 13.2232 2.68872 13.4581 3.34608 13.4581H11.0466V13.6929C11.0466 14.7259 11.8916 15.5241 12.8778 15.5241C13.8641 15.5241 14.7091 14.6791 14.7091 13.6929V13.4581H22.3627C23.0669 13.4581 23.6775 13.2232 24.194 12.8007L24.1936 19.3271C24.1936 20.3133 23.3955 21.1583 22.3624 21.1583H6.11616L6.11632 21.1114ZM27.0111 19.327C27.0111 20.3132 26.2129 21.1582 25.1798 21.1582H24.7102C25.0858 20.6417 25.3675 20.0313 25.3675 19.327V6.50844C25.3675 5.8511 25.1327 5.24059 24.757 4.72409H25.2735C26.2597 4.72409 27.0579 5.52227 27.0579 6.50844V19.327H27.0111Z" fill="white"/>
</svg>
