<svg width="60" height="53" viewBox="0 0 60 53" fill="none" xmlns="http://www.w3.org/2000/svg">
<path d="M59.1961 19.3467C59.1961 16.1413 57.9489 13.1285 55.6836 10.8637L48.4509 3.63201C46.1977 1.37832 43.2184 0.136851 40.0639 0.136851L39.9382 0.13733C36.7175 0.160847 33.6624 1.45608 31.3354 3.78705L29.9988 5.12459L28.5067 3.63249C26.2411 1.36639 23.2282 0.118164 20.0238 0.118164C16.8185 0.118164 13.8056 1.36639 11.5409 3.63249L4.30866 10.8629C-0.368511 15.5405 -0.368511 23.1523 4.30866 27.8294L8.61013 32.1328C8.65908 33.7068 9.33479 35.1745 10.5336 36.2931C11.5078 37.2006 12.7566 37.7986 14.0307 37.9781C14.2495 39.1874 14.8211 40.704 15.8567 41.6542C16.7182 42.506 17.8431 43.0532 19.0679 43.2249C19.3121 44.5278 19.9773 45.7891 20.8767 46.616C21.6604 47.3344 23.077 48.2189 24.642 48.5175C25.251 50.5298 26.3952 51.7938 28.1329 52.3759C28.4774 52.4901 29.1867 52.6821 30.054 52.6821C31.4429 52.6821 32.7276 52.1936 33.8006 51.238C33.8909 51.1464 34.0502 50.9967 34.2575 50.8032L34.3117 50.7514C36.6667 48.5472 38.0118 47.0878 38.7595 45.9091C39.2577 46.0363 39.7794 46.1016 40.2957 46.1016C41.4178 46.1016 42.4016 45.7997 43.119 45.243C44.3821 44.3398 45.1212 42.9754 45.209 41.4268C46.5264 41.3395 47.8749 40.7741 48.7225 39.9367C49.6319 39.0397 50.1935 37.6658 50.2285 36.3416C51.3822 36.2514 52.8339 35.843 54.0361 34.5722C55.781 32.7318 55.3366 30.1585 54.8471 29.1992C54.8044 29.1181 54.7555 29.0356 54.6993 28.9612C54.6773 28.9314 54.6547 28.9026 54.6321 28.8772L55.6807 27.8286C57.9483 25.5648 59.1961 22.552 59.1961 19.3471L59.1961 19.3467ZM51.7906 32.4432C51.2738 32.9889 50.5515 33.2653 49.644 33.2653C49.4261 33.2653 49.2015 33.2495 48.9764 33.2173L38.2197 22.3646C37.6385 21.7772 36.6167 21.7724 36.0299 22.3541C35.4242 22.954 35.4189 23.9359 36.0188 24.5439L46.9924 35.6159C47.3207 36.1903 47.0294 37.2586 46.548 37.7313C46.0479 38.2252 44.78 38.5357 44.2094 38.2108L33.1187 26.844C32.5429 26.2523 31.5241 26.2379 30.9275 26.8186C30.318 27.4142 30.306 28.3961 30.9016 29.0069L42.0191 40.4C42.2269 41.163 42.1353 42.1406 41.27 42.7612C41.1227 42.8749 40.7834 42.9963 40.2737 42.9963C39.956 42.9963 39.6373 42.9488 39.3614 42.8615C39.1905 42.0701 38.822 40.8986 38.0445 39.9479C37.34 39.086 36.014 38.2168 34.5219 38.0552C34.4648 36.7637 33.9931 35.6177 33.1369 34.7083C31.7538 33.236 30.3573 32.8151 29.3418 32.7474C29.2319 31.8063 28.8383 30.6497 27.762 29.5881C26.7983 28.635 25.4896 28.1666 23.9999 28.1786C23.9726 26.8679 23.4783 25.6245 22.5698 24.6129C21.2798 23.1765 19.842 22.8646 18.8682 22.8569H18.7948C17.5158 22.8569 16.2407 23.3771 15.493 24.1882L10.1857 29.3338L6.49469 25.6418C3.02496 22.1716 3.02496 16.5245 6.49469 13.0539L13.7274 5.82163C15.4104 4.13997 17.6454 3.21338 20.0224 3.21338C22.4003 3.21338 24.6353 4.13961 26.3163 5.82077L27.8065 7.31091C25.9233 9.18018 19.3543 15.7065 18.6863 16.4662C18.1661 17.0584 17.9352 17.7879 18.0183 18.5754C18.1358 19.6831 18.8816 20.7763 20.1745 21.7365C21.6881 22.86 23.4499 23.4537 25.2706 23.4537C27.4999 23.4537 29.695 22.551 31.4515 20.9135C32.6435 19.803 35.3171 17.1913 37.089 15.4531L52.123 30.7353C52.1969 31.0564 52.3188 31.8876 51.7904 32.4433L51.7906 32.4432ZM31.674 48.9909C31.2263 49.3877 30.6825 49.5893 30.0591 49.5893C29.6118 49.5893 29.2499 49.4842 29.1136 49.4381C28.5632 49.2538 27.9954 48.9496 27.5885 47.5266L33.6517 41.2115C33.7664 41.1573 33.8965 41.1304 34.0482 41.1304C34.6706 41.1304 35.3905 41.5892 35.6506 41.9078C36.1487 42.5159 36.3349 43.4411 36.392 43.8102C36.2701 44.161 35.6103 45.2935 32.1957 48.4926C31.9174 48.7527 31.7043 48.9552 31.6741 48.9908L31.674 48.9909ZM17.7076 26.352C17.8362 26.2128 18.3013 25.9541 18.8436 25.9532C19.3676 25.9584 19.8341 26.1965 20.269 26.6812C21.1861 27.7029 20.9096 28.7794 20.735 29.2184L14.8152 34.9371C14.0642 34.9356 13.2536 34.5978 12.6479 34.0329C12.3177 33.7234 11.786 33.0885 11.7145 32.1656L17.7076 26.352ZM22.8508 31.4784C23.1234 31.3925 23.6076 31.2678 24.1302 31.2678C24.7488 31.2678 25.2393 31.4425 25.5887 31.788C26.3613 32.551 26.3325 33.3889 26.2409 33.8348L19.8893 40.1816C19.1708 40.172 18.487 39.8994 17.9926 39.4147C17.4892 38.9516 17.1057 37.8847 17.0347 37.0953L22.8508 31.4784ZM28.5377 35.9181C28.6395 35.8768 28.8156 35.8245 29.044 35.8245C29.6314 35.8245 30.2673 36.1706 30.8836 36.8261C31.6135 37.6031 31.4537 38.6762 31.3313 39.1576L25.2595 45.4809C24.4974 45.346 23.5793 44.8935 22.9684 44.3325C22.5039 43.9068 22.1334 43.0737 22.0749 42.3725L28.5377 35.9181ZM52.4641 26.6698L38.2127 12.1813C37.9277 11.8904 37.5293 11.7215 37.12 11.7182H37.1137C36.7121 11.7182 36.3032 11.8847 35.9859 12.1971C35.1471 13.0221 30.8874 17.2078 29.3396 18.6491C28.1658 19.7437 26.7178 20.347 25.2622 20.347C24.1042 20.347 22.9826 19.9688 22.0186 19.2518C21.4921 18.8616 21.244 18.5391 21.1456 18.3664C22.2307 17.241 28.9773 10.5045 33.5235 5.97622C35.2717 4.226 37.5566 3.25224 39.9606 3.2354L40.0589 3.23492C42.3884 3.23492 44.5903 4.15396 46.2599 5.82303L53.4931 13.0538C55.1738 14.7345 56.1 16.9694 56.1 19.3478C56.1 21.7266 55.1738 23.9617 53.4931 25.6417L52.4641 26.6698Z" fill="white"/>
</svg>
