<svg width="50" height="47" viewBox="0 0 50 47" fill="none" xmlns="http://www.w3.org/2000/svg">
<path d="M36.9665 24.7223C35.8683 24.7223 34.9695 23.8239 34.9695 22.7252C34.9695 21.627 35.8679 20.7282 36.9665 20.7282C40.2235 20.7282 42.8569 18.0827 42.8448 14.8378C42.8322 11.5928 40.1993 8.94729 36.9543 8.95944C36.4551 8.95944 35.9558 9.02168 35.4818 9.14661C34.4084 9.42126 33.3229 8.7849 33.0482 7.71151C32.7736 6.63814 33.4099 5.55258 34.4833 5.27791C39.7622 3.90511 45.1661 7.06255 46.5388 12.3541C47.9116 17.633 44.7541 23.0369 39.4626 24.4096C38.6386 24.6098 37.8025 24.7221 36.9664 24.7221L36.9665 24.7223Z" fill="white"/>
<path d="M18.3446 24.7225C11.7176 24.7225 6.35156 19.356 6.35156 12.7294C6.35156 6.10273 11.718 0.736328 18.3446 0.736328C24.9716 0.736328 30.3377 6.10273 30.3377 12.7294C30.3251 19.3564 24.9587 24.7225 18.3446 24.7225ZM18.3446 4.72882C13.9267 4.72882 10.3448 8.31069 10.3448 12.7286C10.3448 17.1465 13.9267 20.7284 18.3446 20.7284C22.7625 20.7284 26.3444 17.1465 26.3444 12.7286C26.3444 8.31069 22.7625 4.72882 18.3446 4.72882Z" fill="white"/>
<path d="M34.5961 46.0132C33.4979 46.0132 32.599 45.1149 32.599 44.0162V40.7465C32.599 36.1039 28.8301 32.3475 24.2001 32.3475H12.4945C7.85198 32.3475 4.09561 36.1165 4.09561 40.7465V44.0162C4.09561 45.1144 3.19721 46.0132 2.09858 46.0132C1.0004 46.0132 0.101562 45.1149 0.101562 44.0162V40.7465C0.114185 33.9075 5.65516 28.3545 12.4935 28.3545H24.1991C31.038 28.3671 36.5911 33.9081 36.5911 40.7465V44.0162C36.5915 45.1148 35.6931 46.0132 34.5949 46.0132H34.5961Z" fill="white"/>
<path d="M47.9008 46.0133C46.8026 46.0133 45.9038 45.1149 45.9038 44.0163V40.7465C45.9038 36.1039 42.1348 32.3476 37.5048 32.3476C36.4067 32.3476 35.5078 31.4492 35.5078 30.3505C35.5078 29.2524 36.4062 28.3535 37.5048 28.3535C44.3438 28.3661 49.8968 33.9071 49.8968 40.7455V44.0153C49.8973 45.1143 48.9984 46.0127 47.9003 46.0127L47.9008 46.0133Z" fill="white"/>
</svg>
