<svg width="52" height="51" viewBox="0 0 52 51" fill="none" xmlns="http://www.w3.org/2000/svg">
<path d="M20.9604 40.9199C24.4278 40.9199 27.6935 40.0396 30.5461 38.4911L41.3677 49.3127C42.4553 50.4008 43.9018 50.9998 45.4403 50.9998C46.9795 50.9998 48.4259 50.4007 49.5136 49.3127C51.7592 47.0672 51.7592 43.413 49.5136 41.1674L38.692 30.3458C40.2405 27.4931 41.1208 24.2274 41.1208 20.7596C41.1208 9.64384 32.077 0.599609 20.9608 0.599609C9.84459 0.599609 0.800781 9.64342 0.800781 20.7596C0.800781 31.8758 9.84459 40.9196 20.9608 40.9196L20.9604 40.9199ZM11.6004 35.2736V30.5996C11.6004 27.5561 14.0765 25.0799 17.1205 25.0799H24.7998C27.8442 25.0799 30.3204 27.5561 30.3204 30.5996V35.2736C27.6208 37.0209 24.4081 38.0399 20.9604 38.0399C17.5126 38.0399 14.3 37.021 11.6004 35.2736ZM47.4769 43.2036C48.5999 44.3266 48.5999 46.1536 47.4769 47.2766C46.9325 47.8206 46.2097 48.1199 45.4398 48.1199C44.6704 48.1199 43.948 47.8206 43.4036 47.2766L33.0263 36.8993C34.5696 35.7426 35.9421 34.3701 37.0993 32.8264L47.4769 43.2036ZM20.9604 3.48023C30.4883 3.48023 38.2404 11.2318 38.2404 20.7602C38.2404 25.5106 36.313 29.8184 33.2004 32.9447V30.5998C33.2004 25.9677 29.4324 22.1997 24.8002 22.1997H17.1205C12.4883 22.1997 8.72037 25.9677 8.72037 30.5994V32.9443C5.60771 29.8179 3.68037 25.5101 3.68037 20.7598C3.68037 11.2314 11.4324 3.47981 20.9604 3.47981V3.48023Z" fill="white"/>
<path d="M20.9617 20.7603C24.9318 20.7603 28.1617 17.5304 28.1617 13.5603C28.1617 9.59027 24.9318 6.36035 20.9617 6.36035C16.9916 6.36035 13.7617 9.59027 13.7617 13.5603C13.7617 17.5304 16.9916 20.7603 20.9617 20.7603ZM20.9617 9.24035C23.3439 9.24035 25.2817 11.1782 25.2817 13.5603C25.2817 15.9425 23.3439 17.8803 20.9617 17.8803C18.5796 17.8803 16.6417 15.9425 16.6417 13.5603C16.6417 11.1782 18.5796 9.24035 20.9617 9.24035Z" fill="white"/>
</svg>
