<svg width="113" height="137" viewBox="0 0 113 137" fill="none" xmlns="http://www.w3.org/2000/svg">
<path d="M71.9641 24.2077C66.6659 26.4991 37.3097 19.0525 39.0281 31.5106C32.011 31.7973 35.7347 45.2583 36.451 48.265C36.451 49.4108 36.3081 50.5565 36.3081 51.7021C36.3081 63.7306 45.33 73.4687 56.3556 73.4687C67.5252 73.4687 76.5471 63.7316 76.5471 51.7021C76.5471 50.5564 76.5471 49.4106 76.4042 48.265C79.6966 38.6716 78.1213 21.4892 71.9643 24.2079L71.9641 24.2077ZM56.4985 68.4565C48.3355 68.4565 41.6062 61.1535 41.3195 52.1317L42.4652 52.2745C43.1814 52.2745 43.7538 51.7022 43.7538 50.9859C43.3243 47.6926 42.7509 39.6737 45.6157 40.3889C49.1957 41.2479 53.0624 42.3936 56.4987 42.3936C59.9357 42.3936 63.8016 41.3908 67.3816 40.3889C70.2454 39.6727 69.5292 47.8355 69.2435 50.9859C69.1007 51.7022 69.8159 52.2745 70.5321 52.2745L71.6778 52.1317C71.3911 61.1525 64.6615 68.4565 56.4989 68.4565H56.4985Z" fill="#E46868"/>
<path d="M56.4989 0.580078C25.4245 0.580078 0.078125 25.9267 0.078125 57.0009C0.078125 79.7694 13.5392 99.3881 33.0141 108.266C36.5941 98.6721 45.7589 91.9417 56.4989 91.9417C67.2389 91.9417 76.4037 98.6721 79.9837 108.266C99.4589 99.3883 112.92 79.7697 112.92 57.0009C112.92 25.9265 87.5731 0.580078 56.4989 0.580078ZM90.1509 90.6529C88.289 81.9177 81.988 74.7577 73.8261 71.6073C69.2432 76.0462 63.2291 78.7673 56.4984 78.7673C49.7678 78.7673 43.7536 76.0462 39.1707 71.6073C31.0078 74.7577 24.7078 81.9177 22.8459 90.6529C14.1107 82.0604 8.81256 70.0318 8.81256 57.0009C8.81256 30.6521 30.1496 9.31528 56.4982 9.31528C82.7038 9.31528 104.184 30.6523 104.184 57.0009C104.184 70.1753 98.7419 82.0609 90.1504 90.6529H90.1509Z" fill="#E46868"/>
<path d="M56.4971 97.3828C45.6141 97.3828 36.8789 106.118 36.8789 117.001C36.8789 127.885 45.6141 136.62 56.4971 136.62C67.38 136.62 76.1152 127.885 76.1152 117.002C76.1152 106.118 67.38 97.3828 56.4971 97.3828ZM64.9456 119.723H59.2181V125.45C59.2181 127.026 57.9295 128.171 56.4971 128.171C54.9218 128.171 53.776 126.883 53.776 125.45V119.723H48.0485C46.4733 119.723 45.3275 118.434 45.3275 117.002C45.3275 115.569 46.616 114.281 48.0485 114.281H53.776V108.553C53.776 106.978 55.0646 105.832 56.4971 105.832C58.0723 105.832 59.2181 107.121 59.2181 108.553V114.281H64.9456C66.5209 114.281 67.6667 115.569 67.6667 117.002C67.6667 118.433 66.5209 119.723 64.9456 119.723Z" fill="#E46868"/>
</svg>
