<svg width="540" height="71" viewBox="0 0 540 71" fill="none" xmlns="http://www.w3.org/2000/svg">
<path d="M3.43867 39.7874C4.30709 39.1707 4.51121 37.9669 3.89459 37.0985C3.27798 36.2301 2.07412 36.0259 1.2057 36.6425L3.43867 39.7874ZM7.7041 32.1966C6.81456 32.7823 6.56829 33.9783 7.15403 34.8678C7.73977 35.7574 8.93572 36.0036 9.82526 35.4179L7.7041 32.1966ZM10.4637 34.9991C11.3553 34.4166 11.6058 33.2215 11.0232 32.3299C10.4406 31.4383 9.24558 31.1878 8.35397 31.7703L10.4637 34.9991ZM14.8531 27.6877C13.9411 28.2378 13.6477 29.423 14.1979 30.335C14.748 31.2471 15.9332 31.5404 16.8452 30.9903L14.8531 27.6877ZM17.4832 30.6071C18.3972 30.0603 18.6949 28.8761 18.1481 27.9621C17.6013 27.0481 16.4171 26.7504 15.5031 27.2972L17.4832 30.6071ZM22.2845 23.4138C21.3502 23.9251 21.0074 25.0971 21.5187 26.0313C22.0301 26.9656 23.202 27.3085 24.1363 26.7971L22.2845 23.4138ZM24.8087 26.4308C25.745 25.9231 26.0925 24.7525 25.5848 23.8163C25.0771 22.88 23.9065 22.5325 22.9702 23.0402L24.8087 26.4308ZM29.8282 19.4936C28.8727 19.9641 28.4794 21.12 28.9498 22.0756C29.4202 23.0311 30.5762 23.4244 31.5317 22.954L29.8282 19.4936ZM32.2039 22.6248C33.1613 22.1582 33.5591 21.0038 33.0925 20.0463C32.6259 19.0889 31.4715 18.6911 30.5141 19.1577L32.2039 22.6248ZM37.5753 15.8929C36.5995 16.3199 36.1547 17.457 36.5816 18.4327C37.0086 19.4085 38.1457 19.8534 39.1215 19.4264L37.5753 15.8929ZM39.8234 19.121C40.801 18.6981 41.2506 17.5628 40.8277 16.5853C40.4048 15.6078 39.2696 15.1582 38.292 15.5811L39.8234 19.121ZM45.4607 12.6558C44.4663 13.0374 43.9696 14.1528 44.3512 15.1472C44.7328 16.1415 45.8483 16.6383 46.8426 16.2566L45.4607 12.6558ZM47.5445 15.989C48.5404 15.6115 49.0418 14.4982 48.6644 13.5022C48.2869 12.5063 47.1736 12.0049 46.1776 12.3823L47.5445 15.989ZM53.5004 9.78416C52.4892 10.1188 51.9408 11.2097 52.2754 12.2208C52.61 13.232 53.7009 13.7804 54.7121 13.4458L53.5004 9.78416ZM55.4378 13.2074C56.4504 12.8772 57.0035 11.7886 56.6733 10.776C56.3431 9.76346 55.2545 9.21031 54.2419 9.54054L55.4378 13.2074ZM61.6588 7.29642C60.633 7.58293 60.0336 8.64677 60.3202 9.67258C60.6067 10.6984 61.6705 11.2977 62.6963 11.0112L61.6588 7.29642ZM63.4223 10.8101C64.4493 10.528 65.0531 9.4667 64.771 8.43968C64.4889 7.41266 63.4276 6.80881 62.4006 7.09094L63.4223 10.8101ZM69.9347 5.19428C68.8965 5.4321 68.2477 6.4665 68.4855 7.50468C68.7233 8.54285 69.7577 9.19167 70.7959 8.95385L69.9347 5.19428ZM71.5391 8.78527C72.5783 8.55189 73.2315 7.52028 72.9982 6.4811C72.7648 5.44191 71.7332 4.78868 70.694 5.02205L71.5391 8.78527ZM78.2887 3.48476C77.2406 3.67401 76.5444 4.67709 76.7336 5.72521C76.9229 6.77333 77.9259 7.46958 78.9741 7.28033L78.2887 3.48476ZM79.7178 7.14764C80.7667 6.96276 81.4672 5.96259 81.2823 4.91369C81.0974 3.86479 80.0972 3.16437 79.0483 3.34924L79.7178 7.14764ZM86.7228 2.16061C85.6671 2.30187 84.9259 3.27217 85.0671 4.32783C85.2084 5.38348 86.1787 6.12474 87.2344 5.98348L86.7228 2.16061ZM87.9889 5.88408C89.0451 5.74713 89.7903 4.77987 89.6533 3.72365C89.5164 2.66742 88.5491 1.9222 87.4929 2.05916L87.9889 5.88408ZM95.1955 1.21771C94.1346 1.31227 93.3513 2.24893 93.4458 3.30979C93.5404 4.37065 94.4771 5.15399 95.5379 5.05943L95.1955 1.21771ZM96.2933 4.99359C97.3545 4.90319 98.1415 3.96961 98.0511 2.90839C97.9607 1.84717 97.0271 1.06016 95.9659 1.15056L96.2933 4.99359ZM103.705 0.641966C102.641 0.691505 101.819 1.59414 101.869 2.65805C101.918 3.72196 102.821 4.54428 103.885 4.49474L103.705 0.641966ZM104.645 4.46077C105.709 4.41523 106.535 3.51569 106.489 2.45159C106.444 1.3875 105.544 0.561808 104.48 0.607355L104.645 4.46077ZM112.228 0.418565C111.163 0.425221 110.305 1.29401 110.312 2.35905C110.318 3.4241 111.187 4.28209 112.252 4.27544L112.228 0.418565ZM113.013 4.27203C114.078 4.26916 114.939 3.40342 114.937 2.33836C114.934 1.2733 114.068 0.412223 113.003 0.415098L113.013 4.27203ZM120.742 0.528536C119.677 0.494796 118.787 1.33042 118.753 2.39495C118.719 3.45948 119.555 4.34981 120.62 4.38355L120.742 0.528536ZM121.381 4.40895C122.445 4.44623 123.338 3.61358 123.376 2.54917C123.413 1.48475 122.58 0.59165 121.516 0.554364L121.381 4.40895ZM129.258 0.951827C128.196 0.880289 127.276 1.68375 127.205 2.74641C127.133 3.80907 127.937 4.72852 128.999 4.80006L129.258 0.951827ZM129.757 4.85224C130.819 4.92706 131.741 4.12644 131.816 3.06401C131.891 2.00157 131.09 1.07965 130.028 1.00482L129.757 4.85224ZM137.725 1.66361C136.666 1.55719 135.72 2.33 135.614 3.38974C135.507 4.44948 136.28 5.39484 137.34 5.50126L137.725 1.66361ZM138.099 5.57859C139.159 5.68805 140.106 4.91795 140.216 3.85852C140.325 2.79909 139.555 1.85152 138.495 1.74206L138.099 5.57859ZM146.189 2.64548C145.133 2.50693 144.165 3.25067 144.026 4.30669C143.888 5.3627 144.631 6.3311 145.688 6.46965L146.189 2.64548ZM146.441 6.56947C147.496 6.71079 148.467 5.96958 148.608 4.91393C148.749 3.85828 148.008 2.88795 146.952 2.74663L146.441 6.56947ZM154.587 3.86765C153.536 3.69992 152.547 4.41658 152.379 5.46836C152.212 6.52013 152.928 7.50874 153.98 7.67647L154.587 3.86765ZM154.735 7.79776C155.786 7.96801 156.776 7.25372 156.947 6.20235C157.117 5.15098 156.403 4.16066 155.351 3.99041L154.735 7.79776ZM162.974 5.3156C161.927 5.12141 160.921 5.81291 160.727 6.86013C160.532 7.90734 161.224 8.9137 162.271 9.10789L162.974 5.3156ZM163.019 9.24737C164.065 9.44382 165.073 8.75448 165.27 7.70769C165.466 6.6609 164.777 5.65305 163.73 5.4566L163.019 9.24737ZM171.293 6.95759C170.25 6.73973 169.228 7.40827 169.011 8.45081C168.793 9.49336 169.461 10.5151 170.504 10.733L171.293 6.95759ZM171.253 10.8903C172.295 11.1102 173.318 10.4437 173.538 9.40156C173.758 8.35944 173.092 7.33638 172.05 7.11649L171.253 10.8903ZM179.595 8.7824C178.557 8.54342 177.522 9.19108 177.283 10.229C177.044 11.2669 177.692 12.302 178.73 12.541L179.595 8.7824ZM179.472 12.7125C180.509 12.9533 181.545 12.3074 181.786 11.2699C182.027 10.2324 181.381 9.19619 180.344 8.95542L179.472 12.7125ZM187.834 10.759C186.8 10.5014 185.754 11.1304 185.496 12.1639C185.239 13.1973 185.868 14.2439 186.901 14.5014L187.834 10.759ZM187.645 14.6874C188.678 14.9466 189.726 14.3192 189.985 13.2861C190.244 12.253 189.617 11.2055 188.583 10.9464L187.645 14.6874ZM196.056 12.8784C195.027 12.6046 193.97 13.2171 193.696 14.2464C193.423 15.2756 194.035 16.332 195.064 16.6058L196.056 12.8784ZM195.801 16.8023C196.83 17.0774 197.887 16.4664 198.162 15.4375C198.438 14.4085 197.827 13.3514 196.798 13.0763L195.801 16.8023ZM204.222 15.1115C203.197 14.8238 202.132 15.4219 201.844 16.4473C201.557 17.4728 202.155 18.5374 203.18 18.8251L204.222 15.1115ZM203.919 19.0328C204.944 19.3217 206.009 18.7249 206.298 17.6997C206.587 16.6746 205.99 15.6093 204.965 15.3205L203.919 19.0328ZM212.375 17.4513C211.353 17.1517 210.281 17.7375 209.982 18.7596C209.682 19.7817 210.268 20.853 211.29 21.1526L212.375 17.4513ZM212.023 21.3677C213.045 21.6682 214.117 21.0835 214.417 20.0617C214.718 19.0399 214.133 17.9679 213.111 17.6674L212.023 21.3677ZM220.481 19.8703C219.462 19.5611 218.385 20.1366 218.076 21.1557C217.767 22.1749 218.342 23.2518 219.361 23.5611L220.481 19.8703ZM220.096 23.7844C221.115 24.0944 222.192 23.5198 222.502 22.5008C222.812 21.4819 222.238 20.4045 221.219 20.0945L220.096 23.7844ZM228.58 22.3632C227.564 22.0462 226.482 22.6134 226.165 23.6302C225.848 24.647 226.415 25.7282 227.432 26.0453L228.58 22.3632ZM228.162 26.2732C229.179 26.5908 230.26 26.0242 230.578 25.0077C230.896 23.9911 230.329 22.9094 229.313 22.5918L228.162 26.2732ZM236.642 24.9041C235.628 24.5812 234.543 25.1422 234.22 26.1571C233.897 27.172 234.458 28.2566 235.473 28.5795L236.642 24.9041ZM236.205 28.8126C237.22 29.136 238.305 28.5755 238.628 27.5608C238.952 26.546 238.391 25.4612 237.376 25.1378L236.205 28.8126ZM244.705 27.4888C243.692 27.1618 242.605 27.7184 242.278 28.732C241.951 29.7456 242.507 30.8324 243.521 31.1595L244.705 27.4888ZM244.25 31.3947C245.263 31.722 246.35 31.1657 246.677 30.1522C247.005 29.1387 246.448 28.0517 245.435 27.7244L244.25 31.3947ZM252.741 30.0928C251.728 29.7635 250.64 30.3176 250.31 31.3304C249.981 32.3433 250.535 33.4314 251.548 33.7607L252.741 30.0928ZM252.279 33.9985C253.292 34.3279 254.38 33.774 254.709 32.7611C255.039 31.7483 254.485 30.6602 253.472 30.3307L252.279 33.9985ZM260.784 32.7122C259.772 32.3823 258.683 32.9358 258.353 33.9484C258.023 34.9611 258.577 36.0495 259.59 36.3794L260.784 32.7122ZM260.319 36.617C261.331 36.9469 262.42 36.3934 262.75 35.3807C263.08 34.3681 262.526 33.2797 261.513 32.9497L260.319 36.617ZM268.812 35.3242C267.799 34.9953 266.711 35.5499 266.382 36.5629C266.053 37.576 266.608 38.6638 267.621 38.9927L268.812 35.3242ZM268.352 39.23C269.365 39.5587 270.453 39.0039 270.782 37.9908C271.11 36.9777 270.556 35.89 269.542 35.5613L268.352 39.23ZM276.854 37.924C275.84 37.5979 274.753 38.1555 274.427 39.1694C274.101 40.1833 274.659 41.2696 275.673 41.5957L276.854 37.924ZM276.404 41.8307C277.418 42.1565 278.504 41.5986 278.83 40.5845C279.155 39.5705 278.597 38.4844 277.583 38.1586L276.404 41.8307ZM284.89 40.4909C283.875 40.1692 282.791 40.7315 282.469 41.7468C282.148 42.7621 282.71 43.846 283.725 44.1677L284.89 40.4909ZM284.459 44.3999C285.474 44.7211 286.558 44.1583 286.879 43.1429C287.2 42.1274 286.637 41.0438 285.622 40.7226L284.459 44.3999ZM292.946 43.0183C291.929 42.7027 290.849 43.2714 290.533 44.2886C290.217 45.3059 290.786 46.3864 291.803 46.702L292.946 43.0183ZM292.538 46.9296C293.555 47.2446 294.635 46.6752 294.95 45.6578C295.265 44.6404 294.696 43.5603 293.678 43.2453L292.538 46.9296ZM301.009 45.488C299.989 45.18 298.913 45.757 298.605 46.7765C298.297 47.7961 298.874 48.8723 299.894 49.1802L301.009 45.488ZM300.631 49.4025C301.651 49.7096 302.726 49.1319 303.033 48.1121C303.341 47.0922 302.763 46.0165 301.743 45.7094L300.631 49.4025ZM309.094 47.8905C308.072 47.5919 307.001 48.1787 306.702 49.2011C306.404 50.2235 306.99 51.2943 308.013 51.5928L309.094 47.8905ZM308.752 51.8082C309.774 52.1058 310.845 51.5181 311.142 50.4954C311.44 49.4728 310.852 48.4025 309.83 48.1049L308.752 51.8082ZM317.197 50.2102C316.171 49.9228 315.107 50.5211 314.819 51.5466C314.532 52.5722 315.13 53.6366 316.156 53.924L317.197 50.2102ZM316.897 54.1315C317.923 54.4179 318.987 53.8184 319.273 52.7926C319.56 51.7667 318.96 50.703 317.934 50.4166L316.897 54.1315ZM325.323 52.4348C324.294 52.1601 323.237 52.7717 322.963 53.8007C322.688 54.8298 323.3 55.8866 324.329 56.1613L325.323 52.4348ZM325.073 56.3595C326.103 56.6329 327.159 56.0201 327.432 54.9907C327.706 53.9613 327.093 52.9052 326.063 52.6318L325.073 56.3595ZM333.477 54.5506C332.444 54.2905 331.396 54.9169 331.136 55.9497C330.875 56.9825 331.502 58.0306 332.535 58.2907L333.477 54.5506ZM333.282 58.4785C334.315 58.7372 335.363 58.1093 335.621 57.0761C335.88 56.043 335.252 54.9957 334.219 54.737L333.282 58.4785ZM341.655 56.5431C340.619 56.2993 339.581 56.9421 339.337 57.9789C339.093 59.0157 339.736 60.0538 340.773 60.2976L341.655 56.5431ZM341.523 60.4735C342.56 60.7157 343.597 60.0712 343.84 59.0341C344.082 57.9969 343.437 56.9598 342.4 56.7176L341.523 60.4735ZM349.865 58.3991C348.824 58.1735 347.798 58.8344 347.572 59.8753C347.346 60.9162 348.007 61.9429 349.048 62.1685L349.865 58.3991ZM349.802 62.3313C350.843 62.5552 351.869 61.8926 352.093 60.8514C352.317 59.8101 351.654 58.7845 350.613 58.5606L349.802 62.3313ZM358.102 60.1037C357.057 59.898 356.043 60.5784 355.838 61.6234C355.632 62.6684 356.312 63.6823 357.357 63.888L358.102 60.1037ZM358.115 64.0364C359.16 64.2401 360.173 63.5579 360.376 62.5125C360.58 61.4671 359.898 60.4545 358.853 60.2507L358.115 64.0364ZM366.369 61.643C365.32 61.4591 364.321 62.1604 364.137 63.2095C363.953 64.2585 364.654 65.2581 365.703 65.442L366.369 61.643ZM366.464 65.5745C367.513 65.7564 368.511 65.053 368.693 64.0036C368.875 62.9542 368.172 61.956 367.122 61.7742L366.464 65.5745ZM374.665 63.0025C373.612 62.8422 372.628 63.5659 372.468 64.6188C372.308 65.6717 373.032 66.6552 374.084 66.8155L374.665 63.0025ZM374.848 66.9309C375.901 67.089 376.883 66.3632 377.041 65.31C377.199 64.2567 376.474 63.2747 375.42 63.1167L374.848 66.9309ZM382.984 64.1674C381.927 64.0326 380.961 64.7798 380.827 65.8363C380.692 66.8928 381.439 67.8585 382.495 67.9933L382.984 64.1674ZM383.262 68.0902C384.318 68.2227 385.283 67.4733 385.415 66.4165C385.547 65.3597 384.798 64.3957 383.741 64.2632L383.262 68.0902ZM391.33 65.1247C390.271 65.0171 389.325 65.7889 389.217 66.8485C389.109 67.9081 389.881 68.8543 390.941 68.9619L391.33 65.1247ZM391.71 69.0391C392.77 69.1441 393.715 68.37 393.82 67.3101C393.925 66.2502 393.151 65.3059 392.091 65.2009L391.71 69.0391ZM399.689 65.8592C398.627 65.7806 397.702 66.5779 397.624 67.64C397.545 68.7022 398.342 69.627 399.405 69.7056L399.689 65.8592ZM400.175 69.7616C401.237 69.8375 402.16 69.0378 402.236 67.9754C402.312 66.9131 401.512 65.9903 400.45 65.9145L400.175 69.7616ZM408.071 66.3591C407.007 66.3111 406.105 67.1348 406.057 68.1988C406.01 69.2627 406.833 70.1641 407.897 70.2121L408.071 66.3591ZM408.671 70.2459C409.735 70.291 410.634 69.4649 410.679 68.4008C410.725 67.3367 409.898 66.4375 408.834 66.3924L408.671 70.2459ZM416.45 66.6109C415.385 66.5951 414.509 67.4456 414.494 68.5106C414.478 69.5755 415.328 70.4516 416.393 70.4674L416.45 66.6109ZM417.165 70.4778C418.23 70.4906 419.104 69.6377 419.117 68.5727C419.13 67.5077 418.277 66.634 417.212 66.6212L417.165 70.4778ZM424.841 66.604C423.776 66.6218 422.927 67.4995 422.945 68.5644C422.963 69.6293 423.84 70.4782 424.905 70.4604L424.841 66.604ZM425.681 70.4463C426.746 70.4254 427.592 69.5453 427.571 68.4804C427.551 67.4155 426.67 66.5692 425.605 66.5901L425.681 70.4463ZM433.216 66.3282C432.152 66.3807 431.332 67.2857 431.385 68.3494C431.438 69.4132 432.342 70.233 433.406 70.1805L433.216 66.3282ZM434.177 70.1413C435.24 70.0856 436.057 69.1782 436.002 68.1146C435.946 67.0509 435.039 66.2339 433.975 66.2896L434.177 70.1413ZM441.58 65.7748C440.518 65.863 439.729 66.795 439.818 67.8564C439.906 68.9178 440.838 69.7067 441.899 69.6184L441.58 65.7748ZM442.673 69.5528C443.735 69.4613 444.521 68.5268 444.429 67.4657C444.337 66.4046 443.403 65.6186 442.342 65.7102L442.673 69.5528ZM449.921 64.9365C448.863 65.0614 448.107 66.02 448.232 67.0777C448.356 68.1354 449.315 68.8917 450.373 68.7669L449.921 64.9365ZM451.137 68.6755C452.195 68.5474 452.948 67.5863 452.82 66.529C452.691 65.4717 451.73 64.7184 450.673 64.8466L451.137 68.6755ZM458.213 63.8109C457.16 63.9727 456.438 64.9572 456.6 66.0099C456.761 67.0626 457.746 67.7849 458.799 67.6231L458.213 63.8109ZM459.566 67.5038C460.619 67.3386 461.338 66.3518 461.173 65.2996C461.007 64.2474 460.021 63.5283 458.968 63.6935L459.566 67.5038ZM466.491 62.3878C465.444 62.5869 464.758 63.5965 464.957 64.6428C465.156 65.6891 466.166 66.3758 467.212 66.1767L466.491 62.3878ZM467.965 66.0321C469.011 65.8296 469.694 64.8178 469.492 63.7721C469.289 62.7265 468.277 62.043 467.232 62.2455L467.965 66.0321ZM474.66 60.6821C473.621 60.9183 472.971 61.9517 473.207 62.9903C473.443 64.0288 474.476 64.6792 475.515 64.443L474.66 60.6821ZM476.271 64.2697C477.309 64.0301 477.956 62.9946 477.717 61.9568C477.477 60.9191 476.442 60.272 475.404 60.5116L476.271 64.2697ZM482.851 58.6636C481.822 58.937 481.209 59.9931 481.482 61.0225C481.755 62.0518 482.811 62.6647 483.841 62.3914L482.851 58.6636ZM484.578 62.1944C485.606 61.9178 486.216 60.8598 485.939 59.8312C485.663 58.8027 484.605 58.1932 483.576 58.4699L484.578 62.1944ZM490.842 56.3901C489.823 56.6995 489.248 57.7765 489.557 58.7956C489.867 59.8148 490.943 60.3901 491.963 60.0807L490.842 56.3901ZM492.703 59.8548C493.721 59.5421 494.293 58.4633 493.98 57.4451C493.667 56.427 492.589 55.8551 491.57 56.1678L492.703 59.8548ZM498.869 53.7972C497.862 54.1424 497.325 55.239 497.67 56.2466C498.015 57.2542 499.112 57.7911 500.119 57.4459L498.869 53.7972ZM500.863 57.19C501.869 56.8415 502.403 55.7432 502.054 54.7367C501.706 53.7303 500.607 53.1968 499.601 53.5452L500.863 57.19ZM506.695 50.9648C505.7 51.3444 505.201 52.4587 505.581 53.4539C505.96 54.4491 507.075 54.9481 508.07 54.5686L506.695 50.9648ZM508.788 54.2934C509.782 53.9108 510.278 52.7949 509.895 51.8009C509.513 50.8069 508.397 50.3113 507.403 50.6939L508.788 54.2934ZM514.491 47.8392C513.509 48.2522 513.048 49.3829 513.461 50.3646C513.874 51.3463 515.005 51.8074 515.986 51.3944L514.491 47.8392ZM516.708 51.0897C517.688 50.6737 518.146 49.5417 517.73 48.5612C517.314 47.5807 516.182 47.1231 515.201 47.5391L516.708 51.0897ZM522.174 44.4564C521.206 44.9016 520.783 46.0468 521.228 47.0144C521.673 47.982 522.818 48.4055 523.786 47.9604L522.174 44.4564ZM524.478 47.6408C525.444 47.1928 525.865 46.0464 525.417 45.0801C524.969 44.1138 523.822 43.6936 522.856 44.1415L524.478 47.6408ZM529.69 40.8522C528.737 41.3278 528.35 42.486 528.826 43.4389C529.301 44.3919 530.46 44.7788 531.412 44.3031L529.69 40.8522ZM532.107 43.955C533.059 43.4766 533.443 42.3174 532.964 41.3658C532.486 40.4142 531.327 40.0306 530.375 40.509L532.107 43.955ZM537.24 36.9336C536.302 37.4389 535.952 38.6086 536.457 39.5462C536.963 40.4837 538.132 40.8341 539.07 40.3287L537.24 36.9336ZM3.11921 40.0146C3.2257 39.9387 3.33218 39.863 3.43867 39.7874L1.2057 36.6425C1.0974 36.7194 0.989095 36.7965 0.880793 36.8737L3.11921 40.0146ZM9.82526 35.4179C10.0381 35.2778 10.2509 35.1382 10.4637 34.9991L8.35397 31.7703C8.13735 31.9119 7.92072 32.054 7.7041 32.1966L9.82526 35.4179ZM16.8452 30.9903C17.0579 30.8621 17.2705 30.7343 17.4832 30.6071L15.5031 27.2972C15.2864 27.4268 15.0698 27.557 14.8531 27.6877L16.8452 30.9903ZM24.1363 26.7971C24.3604 26.6745 24.5846 26.5523 24.8087 26.4308L22.9702 23.0402C22.7417 23.1642 22.5131 23.2887 22.2845 23.4138L24.1363 26.7971ZM31.5317 22.954C31.7558 22.8437 31.9798 22.734 32.2039 22.6248L30.5141 19.1577C30.2855 19.2691 30.0568 19.3811 29.8282 19.4936L31.5317 22.954ZM39.1215 19.4264C39.3555 19.324 39.5895 19.2222 39.8234 19.121L38.292 15.5811C38.0531 15.6844 37.8142 15.7884 37.5753 15.8929L39.1215 19.4264ZM46.8426 16.2566C47.0766 16.1669 47.3105 16.0776 47.5445 15.989L46.1776 12.3823C45.9386 12.4729 45.6996 12.5641 45.4607 12.6558L46.8426 16.2566ZM54.7121 13.4458C54.954 13.3658 55.1959 13.2863 55.4378 13.2074L54.2419 9.54054C53.9948 9.62116 53.7476 9.70236 53.5004 9.78416L54.7121 13.4458ZM62.6963 11.0112C62.9383 10.9436 63.1803 10.8766 63.4223 10.8101L62.4006 7.09094C62.1533 7.15887 61.906 7.22736 61.6588 7.29642L62.6963 11.0112ZM70.7959 8.95385C71.0436 8.8971 71.2914 8.84091 71.5391 8.78527L70.694 5.02205C70.4409 5.07889 70.1878 5.1363 69.9347 5.19428L70.7959 8.95385ZM78.9741 7.28033C79.222 7.23557 79.4699 7.19134 79.7178 7.14764L79.0483 3.34924C78.7951 3.39387 78.5419 3.43904 78.2887 3.48476L78.9741 7.28033ZM87.2344 5.98348C87.4858 5.94983 87.7373 5.91669 87.9889 5.88408L87.4929 2.05916C87.2362 2.09244 86.9795 2.12626 86.7228 2.16061L87.2344 5.98348ZM95.5379 5.05943C95.7897 5.03699 96.0415 5.01504 96.2933 4.99359L95.9659 1.15056C95.7091 1.17244 95.4523 1.19482 95.1955 1.21771L95.5379 5.05943ZM103.885 4.49474C104.138 4.48294 104.391 4.47162 104.645 4.46077L104.48 0.607355C104.222 0.618407 103.963 0.629943 103.705 0.641966L103.885 4.49474ZM112.252 4.27544C112.506 4.27385 112.76 4.27272 113.013 4.27203L113.003 0.415098C112.745 0.415796 112.486 0.41695 112.228 0.418565L112.252 4.27544ZM120.62 4.38355C120.873 4.39159 121.127 4.40006 121.381 4.40895L121.516 0.554364C121.258 0.545325 121 0.536715 120.742 0.528536L120.62 4.38355ZM128.999 4.80006C129.252 4.81706 129.504 4.83446 129.757 4.85224L130.028 1.00482C129.771 0.986761 129.515 0.969094 129.258 0.951827L128.999 4.80006ZM137.34 5.50126C137.593 5.52667 137.846 5.55244 138.099 5.57859L138.495 1.74206C138.239 1.71554 137.982 1.68939 137.725 1.66361L137.34 5.50126ZM145.688 6.46965C145.939 6.50259 146.19 6.53586 146.441 6.56947L146.952 2.74663C146.698 2.71257 146.444 2.67886 146.189 2.64548L145.688 6.46965ZM153.98 7.67647C154.232 7.71659 154.483 7.75702 154.735 7.79776L155.351 3.99041C155.097 3.94918 154.842 3.90825 154.587 3.86765L153.98 7.67647ZM162.271 9.10789C162.52 9.1541 162.769 9.2006 163.019 9.24737L163.73 5.4566C163.478 5.40932 163.226 5.36232 162.974 5.3156L162.271 9.10789ZM170.504 10.733C170.754 10.7852 171.003 10.8376 171.253 10.8903L172.05 7.11649C171.797 7.06327 171.545 7.0103 171.293 6.95759L170.504 10.733ZM178.73 12.541C178.977 12.5979 179.224 12.6551 179.472 12.7125L180.344 8.95542C180.094 8.89752 179.845 8.83985 179.595 8.7824L178.73 12.541ZM186.901 14.5014C187.149 14.5632 187.397 14.6252 187.645 14.6874L188.583 10.9464C188.334 10.8837 188.084 10.8212 187.834 10.759L186.901 14.5014ZM195.064 16.6058C195.31 16.6711 195.556 16.7366 195.801 16.8023L196.798 13.0763C196.55 13.0101 196.303 12.9442 196.056 12.8784L195.064 16.6058ZM203.18 18.8251C203.426 18.8942 203.673 18.9634 203.919 19.0328L204.965 15.3205C204.717 15.2507 204.47 15.181 204.222 15.1115L203.18 18.8251ZM211.29 21.1526C211.534 21.2241 211.779 21.2958 212.023 21.3677L213.111 17.6674C212.866 17.5952 212.62 17.5232 212.375 17.4513L211.29 21.1526ZM219.361 23.5611C219.606 23.6354 219.851 23.7098 220.096 23.7844L221.219 20.0945C220.973 20.0196 220.727 19.9449 220.481 19.8703L219.361 23.5611ZM227.432 26.0453C227.676 26.1212 227.919 26.1971 228.162 26.2732L229.313 22.5918C229.068 22.5155 228.824 22.4393 228.58 22.3632L227.432 26.0453ZM235.473 28.5795C235.717 28.6571 235.961 28.7349 236.205 28.8126L237.376 25.1378C237.132 25.0598 236.887 24.982 236.642 24.9041L235.473 28.5795ZM243.521 31.1595C243.764 31.2378 244.007 31.3162 244.25 31.3947L245.435 27.7244C245.192 27.6458 244.948 27.5673 244.705 27.4888L243.521 31.1595ZM251.548 33.7607C251.792 33.8399 252.035 33.9192 252.279 33.9985L253.472 30.3307C253.228 30.2514 252.985 30.1721 252.741 30.0928L251.548 33.7607ZM259.59 36.3794C259.833 36.4586 260.076 36.5378 260.319 36.617L261.513 32.9497C261.27 32.8706 261.027 32.7914 260.784 32.7122L259.59 36.3794ZM267.621 38.9927C267.865 39.0718 268.108 39.1509 268.352 39.23L269.542 35.5613C269.299 35.4823 269.055 35.4032 268.812 35.3242L267.621 38.9927ZM275.673 41.5957C275.916 41.6741 276.16 41.7524 276.404 41.8307L277.583 38.1586C277.34 38.0805 277.097 38.0023 276.854 37.924L275.673 41.5957ZM283.725 44.1677C283.97 44.2452 284.214 44.3225 284.459 44.3999L285.622 40.7226C285.378 40.6454 285.134 40.5682 284.89 40.4909L283.725 44.1677ZM291.803 46.702C292.048 46.778 292.293 46.8538 292.538 46.9296L293.678 43.2453C293.434 43.1697 293.19 43.0941 292.946 43.0183L291.803 46.702ZM299.894 49.1802C300.139 49.2544 300.385 49.3285 300.631 49.4025L301.743 45.7094C301.498 45.6357 301.254 45.5619 301.009 45.488L299.894 49.1802ZM308.013 51.5928C308.259 51.6647 308.505 51.7365 308.752 51.8082L309.83 48.1049C309.584 48.0336 309.339 47.9621 309.094 47.8905L308.013 51.5928ZM316.156 53.924C316.403 53.9933 316.65 54.0625 316.897 54.1315L317.934 50.4166C317.688 50.3479 317.443 50.2791 317.197 50.2102L316.156 53.924ZM324.329 56.1613C324.577 56.2275 324.825 56.2936 325.073 56.3595L326.063 52.6318C325.817 52.5663 325.57 52.5006 325.323 52.4348L324.329 56.1613ZM332.535 58.2907C332.784 58.3535 333.033 58.4161 333.282 58.4785L334.219 54.737C333.972 54.675 333.724 54.6129 333.477 54.5506L332.535 58.2907ZM340.773 60.2976C341.023 60.3564 341.273 60.415 341.523 60.4735L342.4 56.7176C342.152 56.6596 341.904 56.6014 341.655 56.5431L340.773 60.2976ZM349.048 62.1685C349.299 62.223 349.551 62.2773 349.802 62.3313L350.613 58.5606C350.364 58.507 350.114 58.4532 349.865 58.3991L349.048 62.1685ZM357.357 63.888C357.61 63.9377 357.862 63.9871 358.115 64.0364L358.853 60.2507C358.602 60.2019 358.352 60.1529 358.102 60.1037L357.357 63.888ZM365.703 65.442C365.957 65.4864 366.21 65.5306 366.464 65.5745L367.122 61.7742C366.871 61.7307 366.62 61.687 366.369 61.643L365.703 65.442ZM374.084 66.8155C374.339 66.8543 374.594 66.8927 374.848 66.9309L375.42 63.1167C375.169 63.0789 374.917 63.0408 374.665 63.0025L374.084 66.8155ZM382.495 67.9933C382.751 68.0259 383.006 68.0582 383.262 68.0902L383.741 64.2632C383.489 64.2316 383.236 64.1996 382.984 64.1674L382.495 67.9933ZM390.941 68.9619C391.197 68.9879 391.454 69.0136 391.71 69.0391L392.091 65.2009C391.837 65.1758 391.584 65.1504 391.33 65.1247L390.941 68.9619ZM399.405 69.7056C399.661 69.7246 399.918 69.7433 400.175 69.7616L400.45 65.9145C400.196 65.8963 399.943 65.8779 399.689 65.8592L399.405 69.7056ZM407.897 70.2121C408.155 70.2237 408.413 70.235 408.671 70.2459L408.834 66.3924C408.58 66.3816 408.325 66.3705 408.071 66.3591L407.897 70.2121ZM416.393 70.4674C416.651 70.4713 416.908 70.4747 417.165 70.4778L417.212 66.6212C416.958 66.6181 416.704 66.6147 416.45 66.6109L416.393 70.4674ZM424.905 70.4604C425.164 70.4561 425.423 70.4514 425.681 70.4463L425.605 66.5901C425.351 66.5951 425.096 66.5998 424.841 66.604L424.905 70.4604ZM433.406 70.1805C433.663 70.1678 433.92 70.1547 434.177 70.1413L433.975 66.2896C433.722 66.3029 433.469 66.3157 433.216 66.3282L433.406 70.1805ZM441.899 69.6184C442.157 69.597 442.415 69.5751 442.673 69.5528L442.342 65.7102C442.088 65.7321 441.834 65.7536 441.58 65.7748L441.899 69.6184ZM450.373 68.7669C450.628 68.7369 450.882 68.7064 451.137 68.6755L450.673 64.8466C450.422 64.877 450.172 64.907 449.921 64.9365L450.373 68.7669ZM458.799 67.6231C459.055 67.5838 459.31 67.544 459.566 67.5038L458.968 63.6935C458.716 63.7331 458.465 63.7722 458.213 63.8109L458.799 67.6231ZM467.212 66.1767C467.463 66.1289 467.714 66.0807 467.965 66.0321L467.232 62.2455C466.985 62.2933 466.738 62.3408 466.491 62.3878L467.212 66.1767ZM475.515 64.443C475.767 64.3857 476.019 64.3279 476.271 64.2697L475.404 60.5116C475.156 60.5689 474.908 60.6257 474.66 60.6821L475.515 64.443ZM483.841 62.3914C484.086 62.3262 484.332 62.2605 484.578 62.1944L483.576 58.4699C483.334 58.5349 483.093 58.5995 482.851 58.6636L483.841 62.3914ZM491.963 60.0807C492.209 60.0059 492.456 59.9305 492.703 59.8548L491.57 56.1678C491.328 56.2423 491.085 56.3164 490.842 56.3901L491.963 60.0807ZM500.119 57.4459C500.367 57.3611 500.615 57.2757 500.863 57.19L499.601 53.5452C499.357 53.6297 499.113 53.7137 498.869 53.7972L500.119 57.4459ZM508.07 54.5686C508.309 54.4773 508.549 54.3856 508.788 54.2934L507.403 50.6939C507.167 50.7846 506.931 50.875 506.695 50.9648L508.07 54.5686ZM515.986 51.3944C516.227 51.2933 516.467 51.1917 516.708 51.0897L515.201 47.5391C514.964 47.6396 514.728 47.7396 514.491 47.8392L515.986 51.3944ZM523.786 47.9604C524.017 47.8543 524.247 47.7477 524.478 47.6408L522.856 44.1415C522.629 44.2469 522.401 44.3519 522.174 44.4564L523.786 47.9604ZM531.412 44.3031C531.644 44.1875 531.876 44.0715 532.107 43.955L530.375 40.509C530.147 40.6239 529.918 40.7382 529.69 40.8522L531.412 44.3031ZM539.07 40.3287C539.186 40.2661 539.302 40.2033 539.419 40.1404L537.584 36.7479C537.469 36.8099 537.354 36.8718 537.24 36.9336L539.07 40.3287Z" fill="#E46868"/>
</svg>
