<svg width="61" height="90" viewBox="0 0 61 90" fill="none" xmlns="http://www.w3.org/2000/svg">
<path d="M14.2666 0.950195H47.0372C47.9092 0.950195 48.6163 1.82225 48.6163 2.52935V17.7901C48.6163 18.6621 47.9092 19.3692 47.0372 19.3692H14.2666C13.3946 19.3692 12.6875 18.4972 12.6875 17.7901V2.52935C12.6875 1.65729 13.3946 0.950195 14.2666 0.950195V0.950195Z" fill="#E46868"/>
<path d="M21.1766 29.7707C19.0454 29.7707 17.001 30.6174 15.4938 32.1246C13.9873 33.6319 13.1406 35.6756 13.1406 37.8067C13.1406 39.9384 13.9873 41.9823 15.4938 43.4894C17.0011 44.9967 19.0456 45.8434 21.1766 45.8434C23.3076 45.8434 25.3522 44.9967 26.8594 43.4894C28.3659 41.9822 29.2126 39.9384 29.2126 37.8067C29.2105 35.6762 28.3631 33.6339 26.8565 32.1273C25.3499 30.6207 23.3069 29.7734 21.1764 29.7705L21.1766 29.7707ZM26.17 36.4031L21.1167 41.4564C20.4998 42.0726 19.5002 42.0726 18.884 41.4564L16.1791 38.7514H16.1784C15.5806 38.1318 15.589 37.1469 16.1981 36.5378C16.8072 35.9286 17.7921 35.9202 18.4118 36.5187L20.0001 38.107L23.9325 34.1732C24.5522 33.5747 25.537 33.5832 26.1462 34.1923C26.7554 34.8014 26.7638 35.7869 26.1652 36.406L26.17 36.4031Z" fill="#E46868"/>
<path d="M21.1763 58.4307C19.0445 58.43 17 59.2766 15.4921 60.7839C13.9841 62.2911 13.1374 64.3356 13.1367 66.4674C13.1367 68.5991 13.9834 70.6437 15.4906 72.1516C16.9979 73.6588 19.0424 74.5062 21.1741 74.5062C23.3059 74.5062 25.3505 73.6596 26.8584 72.1523C28.3656 70.6451 29.2123 68.6006 29.2123 66.4688C29.2081 64.3383 28.3607 62.2968 26.8542 60.7902C25.3484 59.2836 23.3068 58.4355 21.1763 58.4307V58.4307ZM26.1697 65.0631L21.1164 70.1164C20.4995 70.7325 19.4999 70.7325 18.8837 70.1164L16.1788 67.4114H16.1781C15.5803 66.7918 15.5887 65.8069 16.1978 65.1977C16.8069 64.5886 17.7918 64.5802 18.4115 65.1787L19.9998 66.7656L23.9322 62.8333C24.5477 62.2157 25.548 62.2136 26.1656 62.8297C26.7838 63.4452 26.7853 64.4455 26.1698 65.0631H26.1697Z" fill="#E46868"/>
<path d="M56.2632 8.58105H51.7753V20.9491V20.9484C51.7753 21.3672 51.609 21.769 51.3129 22.0651C51.0168 22.3612 50.6149 22.5276 50.1962 22.5276H11.1091C10.237 22.5276 9.5299 21.8205 9.5299 20.9484V8.58107H5.04205C3.78508 8.58107 2.5802 9.08019 1.69208 9.96847C0.80397 10.8567 0.304688 12.0616 0.304688 13.3184V86.2246C0.304688 87.0621 0.637446 87.8658 1.22962 88.458C1.82179 89.0502 2.62548 89.3829 3.46299 89.3829H57.8417C58.6792 89.3829 59.4829 89.0502 60.0751 88.458C60.6672 87.8658 61 87.0621 61 86.2246V13.3184C61 12.0615 60.5009 10.8566 59.6126 9.96847C58.7243 9.08035 57.5195 8.58107 56.2626 8.58107L56.2632 8.58105ZM37.3296 31.8695H44.7861C45.6582 31.8695 46.3652 32.5766 46.3652 33.4486C46.3652 34.3207 45.6582 35.0278 44.7861 35.0278H37.3296C36.4576 35.0278 35.7505 34.3207 35.7505 33.4486C35.7505 32.5766 36.4576 31.8695 37.3296 31.8695ZM21.1779 77.6684C18.2086 77.6684 15.3605 76.489 13.2603 74.3896C11.1601 72.2901 9.98001 69.442 9.98001 66.4727C9.98001 63.5033 11.1594 60.6553 13.2596 58.5551C15.359 56.4556 18.2071 55.2755 21.1772 55.2755C24.1465 55.2762 26.9946 56.4557 29.094 58.5558C31.1935 60.656 32.3729 63.5041 32.3722 66.4734C32.3679 69.4413 31.1871 72.2859 29.0884 74.3847C26.9904 76.4827 24.1451 77.6635 21.1779 77.6684V77.6684ZM21.1779 49.0001C18.2093 49.0001 15.3617 47.8206 13.2625 45.7212C11.1632 43.6218 9.98362 40.7744 9.98362 37.8051C9.98362 34.8365 11.1631 31.9889 13.2625 29.8897C15.3619 27.7902 18.2093 26.6108 21.1779 26.6108C24.1465 26.6108 26.994 27.7902 29.0933 29.8897C31.1928 31.9891 32.3722 34.8365 32.3722 37.8051C32.3679 40.773 31.1871 43.6176 29.0884 45.7163C26.9904 47.8144 24.1451 48.9952 21.1779 49.0001ZM51.1023 72.4094H37.3293C36.4572 72.4094 35.7501 71.703 35.7501 70.8302C35.7501 69.9582 36.4572 69.2511 37.3293 69.2511H51.1023C51.9744 69.2511 52.6815 69.9582 52.6815 70.8302C52.6815 71.703 51.9744 72.4094 51.1023 72.4094V72.4094ZM35.7501 62.1146V62.1153C35.7501 61.2432 36.4572 60.5362 37.3293 60.5362H44.7857C45.6578 60.5362 46.3649 61.2432 46.3649 62.1153C46.3649 62.9874 45.6578 63.6945 44.7857 63.6945H37.3293C36.9105 63.6945 36.5087 63.5281 36.2126 63.232C35.9165 62.9359 35.7501 62.5341 35.7501 62.1153V62.1146ZM51.1023 43.7441H37.3293C36.4572 43.7441 35.7501 43.037 35.7501 42.165C35.7501 41.2929 36.4572 40.5858 37.3293 40.5858H51.1023C51.9744 40.5858 52.6815 41.2929 52.6815 42.165C52.6815 43.037 51.9744 43.7441 51.1023 43.7441Z" fill="#E46868"/>
</svg>
