<svg width="106" height="100" viewBox="0 0 106 100" fill="none" xmlns="http://www.w3.org/2000/svg">
<path d="M104.582 91.9191L96.313 72.783H96.3139C99.0317 67.3613 100.439 61.3763 100.422 55.3114C100.389 48.0913 98.3737 41.0181 94.5955 34.8652C90.8174 28.7123 85.4218 23.7154 78.9981 20.4196C74.73 12.8817 68.0895 6.96727 60.1101 3.59655C52.1307 0.226732 43.261 -0.410417 34.8827 1.78497C26.5037 3.98047 19.0859 8.88587 13.7852 15.7363C8.4837 22.5865 5.59702 30.9975 5.57429 39.66C5.51335 45.7467 6.92189 51.7587 9.68244 57.1839L1.41489 76.32C0.711506 77.9305 0.869936 79.7874 1.83448 81.2558C2.7999 82.7244 4.4408 83.6063 6.19847 83.6003C6.91144 83.5881 7.61571 83.4471 8.27818 83.1842L26.9982 75.0202C31.9619 83.6778 40.0431 90.1137 49.5914 93.0124C59.1404 95.9122 69.4362 95.0564 78.3757 90.6202L97.5117 98.8887C98.2465 99.1411 99.0239 99.2473 99.7996 99.2003C101.557 99.2064 103.198 98.3246 104.164 96.8559C105.128 95.3873 105.287 93.5304 104.583 91.92L104.582 91.9191ZM19.927 54.1671C17.271 49.8178 15.9008 44.8062 15.9748 39.711C15.9783 30.9812 19.9261 22.7217 26.7163 17.2336C33.5057 11.7476 42.4113 9.62261 50.9476 11.4525C59.4832 13.2823 66.7348 18.8703 70.6791 26.658C72.7127 30.7096 73.78 35.1772 73.7991 39.7099C73.7991 47.3742 70.7618 54.7249 65.3533 60.1535C59.9439 65.5829 52.6034 68.6463 44.9391 68.6742C40.8145 68.6515 36.7404 67.7662 32.9797 66.0739C32.0961 65.6055 31.2117 65.1903 30.4316 64.7219C29.6185 64.2179 28.6835 63.948 27.7277 63.9419C27.0147 63.9541 26.3104 64.0952 25.6471 64.3581L16.1313 68.4662L20.2395 58.9504V58.9496C20.9202 57.3991 20.8044 55.6145 19.9278 54.1659L19.927 54.1671ZM85.759 74.5507L89.8671 84.0665L80.3514 79.9583V79.9592C78.8009 79.2776 77.0154 79.3942 75.5668 80.2708C70.7718 82.9999 65.3094 84.3344 59.7961 84.1229C54.2831 83.9123 48.9387 82.1633 44.3668 79.0748H44.6793C51.6035 79.093 58.4111 77.2867 64.416 73.8376C70.4209 70.3885 75.4109 65.4179 78.8835 59.4268C82.3569 53.4357 84.1901 46.6359 84.1991 39.7108V37.8905C88.0146 42.8961 90.0796 49.0169 90.0751 55.3108C90.1126 60.4018 88.7449 65.4038 86.123 69.7669C85.2298 71.2068 85.0931 72.9923 85.7591 74.5505L85.759 74.5507Z" fill="#E46868"/>
</svg>
