<svg width="587" height="291" viewBox="0 0 587 291" fill="none" xmlns="http://www.w3.org/2000/svg">
<path d="M359.901 202.643C363.515 194.895 366.399 187.594 368.732 180.951C357.507 181.775 345.639 182.309 333.187 182.464C322.096 182.604 311.458 182.423 301.335 182.004C305.085 187.65 308.928 193.95 312.745 200.981C314.711 204.625 316.688 208.439 318.588 212.435C324.712 225.207 329.114 237.151 332.304 247.616C339.223 238.794 346.784 227.829 353.913 214.607C356.102 210.527 358.11 206.531 359.901 202.643Z" fill="#3BA27A"/>
<path d="M250.045 200.781C252.439 197.503 254.838 194.264 257.242 190.984L260.944 185.951C262.679 183.586 264.407 181.252 266.142 178.887C256.166 177.732 245.682 176.239 234.784 174.355C223.21 172.316 212.223 169.979 201.874 167.498C203.175 174.753 204.865 182.674 207.175 191.092L208.679 196.401C209.089 197.701 209.492 199.023 209.895 200.344C212.297 207.992 214.919 215.076 217.579 221.59C218.468 223.706 219.325 225.727 220.219 227.722C221.516 230.645 222.819 233.456 224.079 236.1C226.75 232.463 229.451 228.821 232.11 225.175C233.244 223.635 234.378 222.095 235.51 220.535C240.346 213.962 245.209 207.355 250.045 200.781Z" fill="#446DB7"/>
<path d="M76.3004 120.282L12.4953 157.491C14.2608 146.143 15.6132 133.163 15.9922 118.824C16.35 105.649 15.7733 93.6046 14.7761 82.9173C22.6479 88.4241 31.0331 93.9959 39.8864 99.5173C52.46 107.335 64.6409 114.224 76.3004 120.282ZM427.012 173.36C417.324 175.136 407.952 176.62 398.938 177.825C407.194 186.151 416.384 196.779 425.224 209.937C431.6 219.414 436.64 228.488 440.641 236.707C444.962 227.322 449.36 216.412 453.196 204.05C457.565 189.953 460.289 176.957 462.021 165.665C451.062 168.464 439.362 171.087 427.012 173.36Z" fill="#F14947"/>
<path d="M15.4255 98.9616C15.0816 98.7232 15.0027 98.2689 15.241 97.925L21.9882 87.7721C22.2166 87.4295 22.6696 87.3407 23.0135 87.5791C23.3574 87.8174 23.4363 88.2717 23.2079 88.6143L16.4508 98.7685C16.289 99.0015 16.0436 99.1342 15.7988 99.1153C15.6559 99.1035 15.5389 99.058 15.4255 98.9616ZM56.943 130.226C56.5931 130.019 56.4831 129.558 56.7214 129.215L65.7819 114.612C65.9892 114.262 66.4397 114.153 66.7823 114.382C67.1223 114.59 67.2422 115.05 67.0039 115.393L57.9446 130.006C57.8027 130.236 57.5262 130.363 57.2615 130.347C57.1696 130.338 57.0539 130.303 56.943 130.226ZM16.1866 117.122C15.8366 116.915 15.7266 116.455 15.9352 116.115L29.6936 92.6945C29.9008 92.3446 30.36 92.2247 30.7 92.4332C31.04 92.6417 31.16 93.1009 30.9527 93.4508L17.1904 116.841C17.0524 117.101 16.7759 117.228 16.5 117.203C16.3881 117.197 16.2725 117.162 16.1866 117.122ZM14.6549 136.609C14.3149 136.401 14.2049 135.941 14.4333 135.598L37.6743 98.1065C37.8729 97.7678 38.3321 97.6478 38.6759 97.8862C39.016 98.0947 39.126 98.5552 38.8976 98.8977L15.6665 136.388C15.5246 136.618 15.2481 136.745 14.9834 136.729C14.8914 136.72 14.7745 136.675 14.6549 136.609ZM28.8372 148.279C28.5305 148.016 28.4714 147.559 28.7348 147.252L58.2269 110.306C58.489 109.99 58.9459 109.931 59.2539 110.204C59.5606 110.467 59.6183 110.914 59.3563 111.231L29.8642 148.177C29.6985 148.38 29.479 148.479 29.2441 148.459C29.0974 148.417 28.9507 148.376 28.8372 148.279ZM12.0879 158.089C11.7454 157.86 11.6652 157.396 11.8936 157.053L48.0216 104.404C48.26 104.06 48.7143 103.982 49.0582 104.22C49.3908 104.45 49.481 104.913 49.2426 105.256L13.1146 157.905C12.9516 158.129 12.7023 158.231 12.4674 158.211C12.3184 158.231 12.2027 158.195 12.0879 158.089ZM217.614 221.625C217.763 221.606 217.936 221.624 218.119 221.631C220.078 221.781 221.5 223.486 221.348 225.435C221.274 226.353 220.854 227.165 220.243 227.749L217.614 221.625ZM230.715 218.448C232.483 217.593 234.571 218.353 235.423 220.102C235.48 220.226 235.551 220.388 235.601 220.543C234.466 222.073 233.342 223.612 232.202 225.184C230.917 225.168 229.689 224.418 229.104 223.17C228.221 221.416 228.949 219.312 230.715 218.448ZM208.71 196.407C209.021 196.549 209.406 196.64 209.794 196.671C211.752 196.822 213.411 195.355 213.563 193.407C213.707 191.469 212.265 189.767 210.326 189.614C209.051 189.516 207.907 190.118 207.204 191.087L208.71 196.407ZM226.601 202.861C228.528 203.006 229.981 204.717 229.828 206.656C229.686 208.603 227.986 210.065 226.057 209.91C224.13 209.765 222.678 208.064 222.83 206.116C222.974 204.178 224.673 202.716 226.601 202.861ZM221.622 175.894C223.55 176.049 225.002 177.749 224.85 179.698C224.706 181.635 223.007 183.097 221.079 182.952C219.152 182.808 217.699 181.097 217.852 179.158C217.994 177.211 219.663 175.743 221.622 175.894ZM239.216 188.254C241.143 188.399 242.595 190.1 242.443 192.048C242.299 193.986 240.601 195.457 238.672 195.303C236.745 195.158 235.293 193.457 235.435 191.51C235.589 189.571 237.257 188.103 239.216 188.254ZM258.142 183.96C259.447 184.054 260.521 184.865 261.035 185.95L257.334 190.993C255.503 190.734 254.221 189.102 254.361 187.216C254.484 185.271 256.183 183.809 258.142 183.96ZM460.057 176.886L438.81 171.734C438.434 171.641 438.159 171.232 438.282 170.853C438.405 170.474 438.774 170.204 439.162 170.315L460.409 175.467C460.785 175.56 461.06 175.969 460.937 176.348C460.852 176.703 460.53 176.946 460.173 176.922C460.118 176.888 460.087 176.882 460.057 176.886ZM458.033 186.227L419.576 175.371C419.198 175.258 418.963 174.844 419.086 174.464C419.197 174.076 419.601 173.842 419.981 173.965L458.437 184.821C458.815 184.934 459.05 185.348 458.938 185.726C458.852 186.08 458.506 186.297 458.179 186.268C458.145 186.232 458.094 186.229 458.033 186.227ZM455.623 195.789L398.736 178.528C398.357 178.405 398.123 178.001 398.244 177.612C398.357 177.234 398.771 176.999 399.139 177.113L456.025 194.373C456.415 194.495 456.649 194.899 456.527 195.288C456.411 195.636 456.101 195.818 455.775 195.799C455.708 195.828 455.683 195.791 455.623 195.789ZM452.964 204.757L407.144 187.561C406.771 187.407 406.568 187.009 406.717 186.596C406.869 186.213 407.267 186.01 407.68 186.159L453.492 203.376C453.866 203.53 454.08 203.936 453.921 204.35C453.811 204.668 453.502 204.859 453.175 204.831C453.111 204.799 453.029 204.789 452.964 204.757ZM449.961 213.638L414.472 196.36C414.096 196.186 413.959 195.749 414.132 195.373C414.316 194.996 414.741 194.85 415.117 195.024L450.596 212.304C450.972 212.478 451.119 212.913 450.946 213.289C450.802 213.58 450.519 213.738 450.223 213.716C450.131 213.707 450.045 213.668 449.961 213.638ZM446.698 222.311L423.753 208.946C423.405 208.748 423.295 208.288 423.471 207.932C423.669 207.593 424.129 207.473 424.475 207.651L447.42 221.016C447.77 221.223 447.88 221.684 447.702 222.03C447.564 222.29 447.288 222.416 447.023 222.4C446.894 222.417 446.809 222.387 446.698 222.311ZM444.123 228.642L431.562 221.156C431.222 220.948 431.102 220.488 431.31 220.139C431.518 219.798 431.977 219.679 432.317 219.887L444.878 227.373C445.218 227.582 445.328 228.042 445.131 228.391C444.993 228.651 444.707 228.779 444.441 228.753C444.325 228.717 444.233 228.709 444.123 228.642ZM166.536 157.724L112.476 207.196C110.249 199.263 108.191 190.601 106.527 181.242C103.359 163.372 102.305 147.088 102.37 133.052C112.32 137.603 123.017 142.149 134.407 146.515C145.543 150.792 156.304 154.501 166.536 157.724ZM520.556 147.386C510.999 150.954 501.714 154.123 492.778 156.954C499.497 163.155 506.46 170.062 513.514 177.765C524.317 189.538 533.427 201.116 541.079 211.873C545.091 199.7 548.89 185.494 551.728 169.474C554.097 156.15 555.364 143.837 555.981 132.75C544.993 137.745 533.187 142.673 520.556 147.386Z" fill="#F9B53F"/>
<path d="M290.026 179.669C283.725 179.21 277.411 178.643 270.981 177.969C148.699 164.896 57.4964 113.249 2.51892 72.2309C1.87219 71.759 0.968271 71.8758 0.466591 72.5264C-0.00400847 73.183 0.104145 74.0982 0.754715 74.5998C56.045 115.85 147.737 167.768 270.672 180.887C276.183 181.488 281.668 181.971 287.064 182.384C290.656 182.668 294.252 182.91 297.79 183.089C416.348 189.856 512.308 156.47 573.603 126.019C574.313 125.655 574.624 124.776 574.264 124.025C573.899 123.305 573.03 122.993 572.28 123.362C509.996 154.366 411.563 188.384 290.026 179.669Z" fill="#F79748"/>
</svg>
