<svg width="167" height="165" viewBox="0 0 167 165" fill="none" xmlns="http://www.w3.org/2000/svg">
<path d="M92.1433 57.8834C86.122 61.4364 79.8745 66.1124 73.9184 72.2027C61.7838 84.7091 56.1228 98.0088 53.459 105.809C56.8472 104.919 61.5193 103.505 66.9465 101.236C75.2369 97.7137 85.2673 92.1485 94.9374 83.2948C109.674 69.8647 116.815 55.1851 120.069 47.052C114.577 48.2056 103.852 50.9691 92.1433 57.8834Z" fill="#F9B53F"/>
<path d="M3.62446 104.494C3.13003 102.781 4.11889 100.972 5.82831 100.443L19.0859 96.5601C20.7953 96.0656 22.6044 97.0545 23.1295 98.7639C23.6239 100.477 22.6389 102.286 20.9256 102.815L7.67188 106.698C7.37675 106.797 7.04713 106.832 6.74818 106.832C5.33388 106.832 4.05373 105.908 3.62446 104.494ZM29.81 25.1323L23.5933 8.86981C22.9685 7.19105 23.7887 5.31299 25.4675 4.68824C27.1424 4.03284 29.0205 4.88755 29.6452 6.56631L35.862 22.8288C36.4867 24.5037 35.6627 26.3818 33.9878 27.0065C33.593 27.1369 33.1982 27.2365 32.8341 27.2365C31.5501 27.2365 30.3006 26.447 29.81 25.1323ZM102.338 21.7403C100.828 20.7859 100.398 18.7431 101.353 17.2636L108.359 6.367C109.313 4.85305 111.353 4.42761 112.832 5.38198C114.346 6.33634 114.771 8.37538 113.821 9.85867L106.814 20.7514C106.19 21.7058 105.136 22.2347 104.082 22.2347C103.491 22.2654 102.897 22.1006 102.338 21.7403ZM82.7025 92.8078C83.3272 92.8078 83.9519 92.643 84.5115 92.2482C85.991 91.2593 86.3858 89.2203 85.4007 87.737C82.9324 84.0499 77.67 77.5341 70.3992 75.4261C61.7831 72.9578 53.7228 75.2958 45.9269 77.5341C43.8227 78.1282 41.8488 78.7185 39.8404 79.1784C35.4672 80.2324 30.8602 81.0564 27.0773 79.8376C22.9685 78.523 19.4462 75.0313 16.5524 71.7734C15.3681 70.4243 13.2946 70.3247 11.9799 71.509C10.6308 72.6971 10.5311 74.7707 11.7155 76.0853C15.2033 80.0024 19.5113 84.2492 25.1034 86.0276C30.4003 87.7063 36.0575 86.752 41.3544 85.468C43.4931 84.9391 45.6318 84.3488 47.7015 83.7241C54.9378 81.6467 61.7486 79.6728 68.5901 81.616C72.4728 82.7352 76.616 86.2575 80.0042 91.2938C80.6289 92.2788 81.6484 92.8078 82.7025 92.8078Z" fill="#3BA27A"/>
<path d="M35.6325 121.182C33.8886 120.787 32.7694 119.043 33.1642 117.299L34.9732 109.3C35.368 107.552 37.1119 106.468 38.8559 106.832C40.5998 107.227 41.7151 108.971 41.3203 110.715L39.5113 118.714C39.1855 120.227 37.8363 121.247 36.353 121.247C36.1231 121.282 35.8624 121.247 35.6325 121.182ZM0.765653 63.6441C-0.388014 62.2605 -0.223205 60.2214 1.16043 59.0678C3.36428 57.1935 7.07825 54.821 12.2448 54.0315C18.132 53.1116 22.9345 54.7904 25.2686 55.875C26.8822 56.6339 27.6066 58.5733 26.8477 60.1869C26.0927 61.8005 24.1495 62.5249 22.5397 61.766C20.8609 60.9765 17.4421 59.7922 13.2299 60.4514C9.58105 61.011 6.91344 62.7204 5.33433 64.0734C4.74408 64.5985 3.98902 64.8284 3.26463 64.8284C2.31027 64.8284 1.3904 64.4337 0.765653 63.6441ZM94.9371 86.5527C95.926 86.5527 96.8803 86.1272 97.5051 85.3032C98.5898 83.8889 98.3253 81.846 96.911 80.7613C90.4643 75.7557 86.3862 70.225 84.8722 64.3033C83.0632 57.2587 85.0064 51.0036 87.0761 44.3882C89.3144 37.1787 91.8786 29.0149 89.3144 19.3716C87.766 13.4768 84.6116 8.01508 79.9701 3.14361C78.7206 1.85963 76.6816 1.79447 75.4014 3.04396C74.1175 4.29728 74.0523 6.33632 75.3018 7.6203C79.1844 11.7022 81.8137 16.2096 83.0632 21.0159C85.1367 28.8501 83.0632 35.4655 80.8938 42.445C78.6555 49.6544 76.3213 57.0939 78.5903 65.9131C80.499 73.2874 85.3322 80.0024 92.9632 85.8934C93.5573 86.3572 94.2472 86.5527 94.9371 86.5527Z" fill="#446DB7"/>
<path d="M116.91 37.6387C116.516 35.8948 117.604 34.1508 119.344 33.7561L129.478 31.4526C131.222 31.0578 132.962 32.1425 133.361 33.8864C133.752 35.6303 132.667 37.378 130.923 37.7728L120.793 40.0763C120.563 40.1415 120.299 40.1415 120.069 40.1415C118.589 40.1415 117.24 39.122 116.91 37.6387ZM94.937 83.3293C99.1799 79.4773 102.767 75.5257 105.826 71.6738C108.394 68.4159 110.598 65.2232 112.437 62.2298C116.09 56.2698 118.524 50.9384 120.069 47.121L136.814 89.6802L141.022 100.377L166.219 164.565L155.399 158.939L146.154 154.132L99.544 129.84L89.345 124.539L53.4586 105.843C62.0785 103.57 78.9198 97.9092 94.937 83.3293ZM59.3151 27.2365C60.3346 27.2365 61.3541 26.7459 61.9789 25.8222C62.9984 24.3427 62.6381 22.3344 61.1548 21.3148C59.775 20.3605 56.452 17.6277 55.467 12.8214C54.7081 9.13426 55.7276 6.07187 56.4213 4.55792C57.1419 2.91366 56.4213 1.00493 54.7771 0.280536C53.129 -0.443859 51.2241 0.280537 50.4997 1.9248C49.5108 4.13248 48.0007 8.67433 49.1161 14.136C50.5648 21.2459 55.4325 25.2626 57.4715 26.6769C58.0311 27.041 58.6903 27.2365 59.3151 27.2365Z" fill="#F14947"/>
<path d="M94.9366 120.392C98.16 120.392 100.793 122.991 100.793 126.253C100.793 127.602 100.333 128.851 99.5743 129.84L89.3791 124.539C90.1035 122.136 92.338 120.392 94.9366 120.392ZM136.814 89.6803L141.022 100.378C140.133 100.937 139.113 101.236 137.994 101.236C134.771 101.236 132.141 98.6337 132.141 95.3758C132.141 92.5779 134.146 90.2054 136.814 89.6803ZM77.6354 101.926C80.8588 101.926 83.4919 104.559 83.4919 107.786C83.4919 111.01 80.8933 113.643 77.6354 113.643C74.4121 113.643 71.7828 111.044 71.7828 107.786C71.7828 104.559 74.3814 101.926 77.6354 101.926ZM125.135 114.567C128.358 114.567 130.988 117.165 130.988 120.423C130.988 123.65 128.389 126.283 125.135 126.283C121.877 126.283 119.279 123.685 119.279 120.423C119.279 117.165 121.912 114.567 125.135 114.567ZM152.011 148.337C155.234 148.337 157.863 150.94 157.863 154.198C157.863 156.171 156.909 157.885 155.429 158.969L146.154 154.132C146.189 150.905 148.783 148.337 152.011 148.337ZM112.437 62.1954C114.346 63.1498 115.66 65.1236 115.66 67.4271C115.66 70.6544 113.062 73.2875 109.808 73.2875C108.259 73.2875 106.814 72.6627 105.795 71.6739C108.394 68.416 110.597 65.2233 112.437 62.1954ZM15.7973 36.259C20.1705 34.5457 29.0856 32.1425 39.4456 34.975C52.7683 38.6276 59.744 48.4702 62.1088 52.5521C63.0325 54.0967 62.5036 56.0744 60.959 56.9943C60.4339 57.2894 59.8743 57.4542 59.3147 57.4542C58.1956 57.4542 57.1109 56.864 56.5168 55.8406C54.5468 52.4525 48.7554 44.2886 37.7362 41.2607C29.1852 38.8921 21.7841 40.9311 18.166 42.3147C16.4872 42.974 14.613 42.1154 13.9537 40.4712C13.2945 38.8231 14.1186 36.9144 15.7973 36.259Z" fill="#F9B53F"/>
<path d="M35.9929 118.779C35.7629 118.714 35.6326 118.514 35.6978 118.284L37.7023 109.726C37.7713 109.496 37.9668 109.365 38.1967 109.431C38.4267 109.496 38.557 109.695 38.4919 109.925L36.4873 118.484C36.4528 118.679 36.288 118.813 36.0925 118.813C36.0581 118.779 36.0274 118.779 35.9929 118.779ZM103.787 19.5671C103.592 19.4368 103.523 19.2068 103.657 19.0075L110.759 7.71997C110.893 7.52067 111.123 7.49 111.319 7.58582C111.518 7.71997 111.583 7.94994 111.453 8.14541L104.347 19.4368C104.282 19.5671 104.147 19.6323 104.017 19.6323C103.917 19.6016 103.852 19.6016 103.787 19.5671ZM59.7408 53.9663C57.6711 50.5743 51.6192 42.3147 40.3009 38.6927C29.3468 35.1397 19.8109 38.0679 16.2234 39.4516C16.0279 39.5167 15.798 39.4171 15.6983 39.2178C15.5987 39.0223 15.729 38.7578 15.9283 38.6927C20.4663 36.9143 29.7416 34.4153 40.5309 37.9031C52.0791 41.6209 58.2959 50.0837 60.4346 53.5371C60.5649 53.7364 60.4997 53.9663 60.3004 54.0966C60.2352 54.1311 60.1701 54.1618 60.1049 54.1618C59.9746 54.1618 59.8405 54.0966 59.7408 53.9663ZM92.2428 85.6979C92.1087 85.5331 92.1087 85.2687 92.2735 85.1384C98.3944 79.8376 103.887 73.8163 108.555 67.2316C112.012 62.3946 115.036 57.1935 117.57 51.7931C117.67 51.5977 117.899 51.498 118.095 51.5977C118.294 51.6935 118.394 51.9235 118.294 52.1228C115.726 57.5538 112.702 62.7894 109.214 67.6915C104.512 74.3414 98.9847 80.4317 92.8024 85.7324C92.7334 85.7976 92.6376 85.8283 92.5379 85.8283C92.4383 85.8283 92.308 85.7976 92.2428 85.6979ZM82.0783 111.604C81.879 111.47 81.8483 111.209 81.9786 111.044C83.7225 108.606 83.2281 105.184 80.8595 103.44C79.7096 102.585 78.1957 102.221 76.7162 102.486C75.2023 102.75 73.8876 103.605 73.0329 104.889C72.8988 105.084 72.6688 105.119 72.4733 104.988C72.274 104.854 72.2434 104.624 72.3737 104.429C73.3587 102.945 74.842 101.991 76.5859 101.696C78.2608 101.397 80.0047 101.796 81.3539 102.781C84.0522 104.789 84.6424 108.706 82.6379 111.504C82.5689 111.604 82.4386 111.669 82.3083 111.669C82.2431 111.669 82.1434 111.634 82.0783 111.604ZM157.369 156.501C157.174 156.436 157.044 156.206 157.109 155.976C157.895 153.538 156.975 150.871 154.87 149.556C152.962 148.372 150.463 148.502 148.654 149.886C148.489 150.016 148.224 149.985 148.094 149.82C147.964 149.656 147.994 149.391 148.159 149.261C150.263 147.678 153.127 147.513 155.3 148.897C157.734 150.411 158.784 153.439 157.864 156.271C157.799 156.436 157.634 156.566 157.469 156.566C157.469 156.501 157.438 156.501 157.369 156.501ZM125.136 126.647C125.366 126.647 125.531 126.448 125.531 126.253C125.531 126.019 125.331 125.854 125.136 125.854C122.142 125.854 119.709 123.42 119.709 120.423C119.709 117.43 122.142 114.992 125.136 114.992C125.366 114.992 125.531 114.796 125.531 114.597C125.531 114.402 125.331 114.202 125.136 114.202C121.682 114.202 118.885 117 118.885 120.457C118.885 123.849 121.682 126.647 125.136 126.647Z" fill="#3A5471"/>
</svg>
