<svg width="516" height="291" viewBox="0 0 516 291" fill="none" xmlns="http://www.w3.org/2000/svg">
<path d="M226.568 202.644C222.954 194.895 220.07 187.595 217.737 180.951C228.962 181.775 240.83 182.309 253.282 182.464C264.373 182.604 275.01 182.423 285.133 182.004C281.384 187.65 277.54 193.95 273.723 200.981C271.758 204.625 269.78 208.439 267.881 212.436C261.756 225.207 257.355 237.151 254.165 247.616C247.246 238.794 239.684 227.829 232.556 214.607C230.367 210.527 228.358 206.531 226.568 202.644Z" fill="#3BA27A"/>
<path d="M336.424 200.781C334.03 197.503 331.631 194.264 329.227 190.984L325.524 185.951C323.79 183.586 322.062 181.252 320.327 178.887C330.303 177.732 340.787 176.239 351.685 174.355C363.259 172.316 374.246 169.978 384.595 167.498C383.294 174.753 381.604 182.674 379.294 191.091L377.79 196.401C377.38 197.701 376.977 199.023 376.574 200.344C374.171 207.992 371.549 215.076 368.89 221.589C368 223.706 367.143 225.727 366.249 227.722C364.953 230.644 363.65 233.455 362.389 236.1C359.719 232.463 357.018 228.821 354.358 225.175C353.224 223.635 352.09 222.095 350.959 220.535C346.122 213.962 341.26 207.355 336.424 200.781Z" fill="#446DB7"/>
<path d="M510.168 120.282L573.973 157.491C572.208 146.144 570.856 133.163 570.476 118.824C570.119 105.649 570.695 93.6046 571.693 82.9174C563.821 88.4242 555.436 93.996 546.582 99.5174C534.009 107.335 521.828 114.224 510.168 120.282ZM159.457 173.36C169.144 175.137 178.517 176.62 187.531 177.825C179.275 186.151 170.085 196.779 161.244 209.937C154.869 219.414 149.829 228.488 145.828 236.707C141.506 227.322 137.109 216.413 133.273 204.05C128.904 189.953 126.18 176.957 124.448 165.665C135.407 168.464 147.106 171.087 159.457 173.36Z" fill="#F14947"/>
<path d="M571.043 98.9617C571.387 98.7233 571.466 98.269 571.228 97.9251L564.481 87.7722C564.252 87.4296 563.799 87.3408 563.455 87.5791C563.111 87.8175 563.032 88.2718 563.261 88.6144L570.018 98.7686C570.18 99.0016 570.425 99.1343 570.67 99.1154C570.813 99.1036 570.93 99.0581 571.043 98.9617ZM529.526 130.226C529.876 130.019 529.986 129.559 529.747 129.215L520.687 114.612C520.48 114.262 520.029 114.153 519.686 114.382C519.346 114.59 519.227 115.05 519.465 115.393L528.524 130.006C528.666 130.236 528.943 130.363 529.207 130.347C529.299 130.338 529.415 130.303 529.526 130.226ZM570.282 117.122C570.632 116.915 570.742 116.455 570.534 116.115L556.775 92.6946C556.568 92.3446 556.109 92.2247 555.769 92.4333C555.429 92.6418 555.309 93.101 555.516 93.4509L569.278 116.841C569.416 117.101 569.693 117.228 569.969 117.203C570.081 117.197 570.196 117.162 570.282 117.122ZM571.814 136.61C572.154 136.401 572.264 135.941 572.035 135.598L548.794 98.1066C548.596 97.7678 548.137 97.6479 547.793 97.8862C547.453 98.0948 547.343 98.5552 547.571 98.8978L570.802 136.388C570.944 136.618 571.221 136.745 571.485 136.729C571.577 136.72 571.694 136.675 571.814 136.61ZM557.632 148.279C557.938 148.016 557.997 147.559 557.734 147.252L528.242 110.307C527.98 109.99 527.523 109.931 527.215 110.204C526.908 110.468 526.85 110.915 527.112 111.231L556.605 148.177C556.77 148.38 556.99 148.479 557.225 148.459C557.371 148.418 557.518 148.376 557.632 148.279ZM574.381 158.089C574.723 157.86 574.804 157.396 574.575 157.053L538.447 104.404C538.209 104.061 537.754 103.982 537.411 104.22C537.078 104.45 536.988 104.913 537.226 105.257L573.354 157.906C573.517 158.129 573.767 158.232 574.001 158.211C574.15 158.231 574.266 158.195 574.381 158.089ZM368.855 221.625C368.706 221.606 368.532 221.624 368.35 221.631C366.391 221.782 364.969 223.486 365.121 225.435C365.194 226.353 365.615 227.165 366.226 227.749L368.855 221.625ZM355.753 218.448C353.985 217.593 351.898 218.353 351.046 220.102C350.989 220.226 350.918 220.388 350.867 220.543C352.003 222.073 353.127 223.612 354.267 225.184C355.551 225.168 356.78 224.418 357.365 223.17C358.248 221.416 357.52 219.312 355.753 218.448ZM377.759 196.407C377.448 196.549 377.063 196.64 376.675 196.671C374.716 196.822 373.058 195.355 372.906 193.407C372.762 191.469 374.204 189.767 376.143 189.614C377.418 189.516 378.562 190.118 379.265 191.088L377.759 196.407ZM359.868 202.861C357.94 203.006 356.487 204.717 356.641 206.656C356.783 208.603 358.483 210.065 360.411 209.91C362.339 209.765 363.791 208.064 363.639 206.116C363.495 204.178 361.795 202.716 359.868 202.861ZM364.847 175.894C362.918 176.049 361.467 177.75 361.619 179.698C361.762 181.635 363.462 183.097 365.389 182.952C367.317 182.808 368.77 181.097 368.617 179.158C368.474 177.211 366.806 175.743 364.847 175.894ZM347.253 188.254C345.326 188.399 343.874 190.1 344.026 192.048C344.17 193.986 345.868 195.457 347.797 195.303C349.724 195.158 351.176 193.457 351.034 191.51C350.88 189.571 349.212 188.103 347.253 188.254ZM328.327 183.96C327.022 184.054 325.948 184.865 325.434 185.95L329.135 190.993C330.966 190.734 332.247 189.102 332.107 187.216C331.985 185.271 330.285 183.809 328.327 183.96ZM126.411 176.886L147.659 171.734C148.034 171.641 148.309 171.232 148.187 170.853C148.064 170.474 147.695 170.204 147.307 170.315L126.059 175.467C125.684 175.56 125.409 175.969 125.531 176.348C125.617 176.703 125.939 176.946 126.296 176.922C126.35 176.888 126.382 176.882 126.411 176.886ZM128.436 186.227L166.892 175.371C167.27 175.258 167.506 174.844 167.383 174.465C167.272 174.076 166.868 173.843 166.488 173.965L128.032 184.821C127.654 184.934 127.419 185.348 127.531 185.726C127.617 186.08 127.962 186.297 128.289 186.268C128.324 186.232 128.375 186.229 128.436 186.227ZM130.846 195.789L187.733 178.528C188.112 178.405 188.346 178.001 188.225 177.612C188.112 177.234 187.698 176.999 187.33 177.113L130.443 194.373C130.054 194.495 129.82 194.899 129.941 195.288C130.058 195.637 130.368 195.818 130.693 195.799C130.76 195.828 130.785 195.791 130.846 195.789ZM133.505 204.757L179.325 187.561C179.698 187.407 179.901 187.009 179.752 186.596C179.6 186.213 179.202 186.01 178.789 186.159L132.976 203.376C132.603 203.53 132.389 203.936 132.547 204.351C132.658 204.668 132.966 204.859 133.293 204.831C133.358 204.799 133.44 204.789 133.505 204.757ZM136.508 213.638L171.997 196.36C172.373 196.186 172.51 195.749 172.336 195.373C172.153 194.996 171.727 194.85 171.351 195.024L135.872 212.304C135.497 212.478 135.349 212.913 135.523 213.289C135.667 213.58 135.95 213.738 136.245 213.716C136.337 213.707 136.423 213.668 136.508 213.638ZM139.77 222.311L162.715 208.946C163.064 208.748 163.174 208.288 162.998 207.932C162.799 207.593 162.34 207.473 161.994 207.651L139.049 221.016C138.699 221.223 138.589 221.684 138.766 222.03C138.904 222.29 139.181 222.417 139.446 222.4C139.575 222.417 139.659 222.387 139.77 222.311ZM142.345 228.642L154.907 221.156C155.247 220.948 155.366 220.489 155.159 220.139C154.951 219.799 154.492 219.679 154.151 219.887L141.59 227.373C141.25 227.582 141.14 228.042 141.338 228.391C141.476 228.651 141.762 228.779 142.028 228.753C142.144 228.717 142.236 228.709 142.345 228.642ZM419.932 157.724L473.993 207.196C476.22 199.263 478.278 190.601 479.942 181.243C483.109 163.372 484.163 147.088 484.099 133.052C474.149 137.603 463.452 142.149 452.062 146.515C440.925 150.792 430.165 154.501 419.932 157.724ZM65.9123 147.386C75.4696 150.954 84.7552 154.123 93.6906 156.954C86.9713 163.155 80.0092 170.062 72.9545 177.765C62.1521 189.538 53.0414 201.116 45.39 211.873C41.3782 199.7 37.5785 185.494 34.7404 169.474C32.3719 156.15 31.1049 143.838 30.4875 132.75C41.4762 137.745 53.2814 142.674 65.9123 147.386Z" fill="#F9B53F"/>
<path d="M296.443 179.669C302.743 179.21 309.058 178.643 315.487 177.969C437.769 164.896 528.972 113.249 583.95 72.2309C584.597 71.759 585.5 71.8758 586.002 72.5264C586.473 73.183 586.365 74.0982 585.714 74.5999C530.424 115.85 438.732 167.768 315.797 180.887C310.286 181.488 304.8 181.971 299.405 182.384C295.813 182.668 292.217 182.91 288.679 183.089C170.12 189.856 74.1607 156.47 12.8656 126.019C12.1553 125.655 11.8446 124.776 12.2043 124.025C12.57 123.305 13.4385 122.993 14.1885 123.362C76.4727 154.366 174.906 188.384 296.443 179.669Z" fill="#F79748"/>
</svg>
